/* XPM */
static char *_0535_a2b9aa331d5da157839ec11d09682ebdf15fc64db8d59ae4e8eb282b56aa4438[] = {
/* columns rows colors chars-per-pixel */
"64 64 256 2 ",
"   c black",
".  c #010101",
"X  c #020202",
"o  c gray1",
"O  c #040404",
"+  c gray2",
"@  c #060606",
"#  c #070707",
"$  c gray3",
"%  c #090909",
"&  c gray4",
"*  c #0B0B0B",
"=  c #0C0C0C",
"-  c gray5",
";  c #0E0E0E",
":  c gray6",
">  c #101010",
",  c #111111",
"<  c gray7",
"1  c #131313",
"2  c gray8",
"3  c #151515",
"4  c #161616",
"5  c gray9",
"6  c #181818",
"7  c #191919",
"8  c gray10",
"9  c #1B1B1B",
"0  c gray11",
"q  c #1D1D1D",
"w  c #1E1E1E",
"e  c gray12",
"r  c #202020",
"t  c gray13",
"y  c #222222",
"u  c #232323",
"i  c gray14",
"p  c #252525",
"a  c gray15",
"s  c #272727",
"d  c #282828",
"f  c gray16",
"g  c #2A2A2A",
"h  c gray17",
"j  c #2C2C2C",
"k  c #2D2D2D",
"l  c gray18",
"z  c #2F2F2F",
"x  c gray19",
"c  c #313131",
"v  c #323232",
"b  c gray20",
"n  c #343434",
"m  c #353535",
"M  c gray21",
"N  c #373737",
"B  c gray22",
"V  c #393939",
"C  c #3A3A3A",
"Z  c gray23",
"A  c #3C3C3C",
"S  c gray24",
"D  c #3E3E3E",
"F  c #3F3F3F",
"G  c gray25",
"H  c #414141",
"J  c gray26",
"K  c #434343",
"L  c #444444",
"P  c gray27",
"I  c #464646",
"U  c gray28",
"Y  c #484848",
"T  c #494949",
"R  c gray29",
"E  c #4B4B4B",
"W  c #4C4C4C",
"Q  c gray30",
"!  c #4E4E4E",
"~  c gray31",
"^  c #505050",
"/  c #515151",
"(  c gray32",
")  c #535353",
"_  c gray33",
"`  c #555555",
"'  c #565656",
"]  c gray34",
"[  c #585858",
"{  c gray35",
"}  c #5A5A5A",
"|  c #5B5B5B",
" . c gray36",
".. c #5D5D5D",
"X. c gray37",
"o. c #5F5F5F",
"O. c #606060",
"+. c gray38",
"@. c #626262",
"#. c gray39",
"$. c #646464",
"%. c #656565",
"&. c gray40",
"*. c #676767",
"=. c #686868",
"-. c DimGray",
";. c #6A6A6A",
":. c gray42",
">. c #6C6C6C",
",. c #6D6D6D",
"<. c gray43",
"1. c #6F6F6F",
"2. c gray44",
"3. c #717171",
"4. c #727272",
"5. c gray45",
"6. c #747474",
"7. c gray46",
"8. c #767676",
"9. c #777777",
"0. c gray47",
"q. c #797979",
"w. c gray48",
"e. c #7B7B7B",
"r. c #7C7C7C",
"t. c gray49",
"y. c #7E7E7E",
"u. c gray50",
"i. c #808080",
"p. c #818181",
"a. c gray51",
"s. c #838383",
"d. c #848484",
"f. c gray52",
"g. c #868686",
"h. c gray53",
"j. c #888888",
"k. c #898989",
"l. c gray54",
"z. c #8B8B8B",
"x. c gray55",
"c. c #8D8D8D",
"v. c #8E8E8E",
"b. c gray56",
"n. c #909090",
"m. c gray57",
"M. c #929292",
"N. c #939393",
"B. c gray58",
"V. c #959595",
"C. c gray59",
"Z. c #979797",
"A. c #989898",
"S. c gray60",
"D. c #9A9A9A",
"F. c #9B9B9B",
"G. c gray61",
"H. c #9D9D9D",
"J. c gray62",
"K. c #9F9F9F",
"L. c #A0A0A0",
"P. c gray63",
"I. c #A2A2A2",
"U. c gray64",
"Y. c #A4A4A4",
"T. c #A5A5A5",
"R. c gray65",
"E. c #A7A7A7",
"W. c gray66",
"Q. c #A9A9A9",
"!. c #AAAAAA",
"~. c gray67",
"^. c #ACACAC",
"/. c gray68",
"(. c #AEAEAE",
"). c #AFAFAF",
"_. c gray69",
"`. c #B1B1B1",
"'. c #B2B2B2",
"]. c gray70",
"[. c #B4B4B4",
"{. c gray71",
"}. c #B6B6B6",
"|. c #B7B7B7",
" X c gray72",
".X c #B9B9B9",
"XX c gray73",
"oX c #BBBBBB",
"OX c #BCBCBC",
"+X c gray74",
"@X c gray",
"#X c gray75",
"$X c #C0C0C0",
"%X c #C1C1C1",
"&X c gray76",
"*X c #C3C3C3",
"=X c gray77",
"-X c #C5C5C5",
";X c #C6C6C6",
":X c gray78",
">X c #C8C8C8",
",X c gray79",
"<X c #CACACA",
"1X c #CBCBCB",
"2X c gray80",
"3X c #CDCDCD",
"4X c #CECECE",
"5X c gray81",
"6X c #D0D0D0",
"7X c gray82",
"8X c #D2D2D2",
"9X c LightGray",
"0X c gray83",
"qX c #D5D5D5",
"wX c gray84",
"eX c #D7D7D7",
"rX c #D8D8D8",
"tX c gray85",
"yX c #DADADA",
"uX c gray86",
"iX c gainsboro",
"pX c #DDDDDD",
"aX c gray87",
"sX c #DFDFDF",
"dX c gray88",
"fX c #E1E1E1",
"gX c #E2E2E2",
"hX c gray89",
"jX c #E4E4E4",
"kX c gray90",
"lX c #E6E6E6",
"zX c #E7E7E7",
"xX c gray91",
"cX c #E9E9E9",
"vX c #EAEAEA",
"bX c gray92",
"nX c #ECECEC",
"mX c gray93",
"MX c #EEEEEE",
"NX c #EFEFEF",
"BX c gray94",
"VX c #F1F1F1",
"CX c gray95",
"ZX c #F3F3F3",
"AX c #F4F4F4",
"SX c gray96",
"DX c #F6F6F6",
"FX c gray97",
"GX c #F8F8F8",
"HX c #F9F9F9",
"JX c gray98",
"KX c #FBFBFB",
"LX c gray99",
"PX c #FDFDFD",
"IX c #FEFEFE",
"UX c white",
/* pixels */
"_ / ] / ] _ ' / | / ) { _ ( ' ` _ ) ! _ [ ` ^ [ ` / ' _ { ^ ) / ' ] ` ` ( ) ( ) ` ^ [ ( ] ^ [ / ) / / ) ` _ _ _ _ ` ! } ) ' ) ' ",
"5X3.8.5.%.3.x.k.z.b.z.N.I.A.z.B.Z.D.N.S.z.C.m.Z.k.k.c.j.c.x.b.c.d.x.v.a.7.2.2.2.2.,.8.1.6.2.8.>.<.7.8.3.>.<.1.1.8.-.4.1.-.2.1.B ",
"9X2.$.2.(.R.4.<.d.z.M.M.b.N.Z.B.A.v.Z.F.K.N.S.n.G.n.z.b.C.N.n.b.b.z.m.v.B.l.x.z.b.l.i.c.g.m.s.q.6.:.&.3.6.4.<.3.:.5.~.Q.8.-.0.b ",
"3X-.5.!.PX1X>.( 7.w.h.d.0.s.B.m.k.F.z.A.h.S.D.b.m.G.G.V.c.C.Z.Z.g.D.b.Z.a.F.v.v.j.m.N.n.f.n.b.g.k.c.z.c.j.c.z.x.l.(.BX3X>.` 7.M ",
"9X..:.Q.>Xu.] [ :.3.2.7.i.t.u.N.b.M.s.c.S.c.D.V.S.A.m.G.B.Z.m.Z.H.V.v.M.C.Z.n.x.H.h.c.n.S.g.x.c.m.z.s.b.x.v.g.k.b.Y.,Xw.[ _ k.M ",
"2X-.| :.9./ _ ,.3.2.1.1.1.1.9.d.1.g.3.m.i.N.k.A.x.Z.N.H.b.G.A.L.V.S.H.B.V.N.S.C.M.D.n.J.g.D.M.A.z.G.S.V.d.m.v.v.j.x.4.-./ 7.9.M ",
"7X-.&.@.O.>.6.4.4.2.6.:.} $.6.1.Q w.s.3.{ k.j.v.W z.V.u. .j.B.V.! D.F.M.| C.C.H._ F.A.b.) V.N.m.T c.H.r.| a.M.b.K.v.v.j.Z.d.g.S ",
"7X| *.-.O.:.@.2.,.8.3.:.4.6.1.1.<.>.8.z.=.M.2.v.l.V.j.M.a.S.m.V.z.Z.G.C.N.D.F.C.S.V.Z.H.Z.C.Z.A.S.G.N.J.M.D.m.C.z.Z.l.F.l.H.h.B ",
"6X+.%.:.o.#.#.*.%.,.<.) Y ~ E Q ^ Q T E ( ! T W Q ! R I ( U ~ W / R / W T R E Q T E R Y R ! ! R W ! R L ' vXS.S.C.D.Z.c.m.c.C.M ",
"7Xo. .@.=.-.@.$.$.=.*.Y M D N b m N N A I T E ^ L ~ ~ ~ E U T ^ R Q U ( Y ) Q U W Q Q Q R E Q ^ E Q ~ ] B.DXA.A.D.F.V.L.F.D.Z.C ",
"4XX.{ -.c.f.,.$.@.#.*.! K %.<.>.2.6.4.1.4.2.,.1.4.8.g.9.s.q.g.c.v.M.n.z.g.g.C.N.M.N.B.A.C.Z.C.D.Z.B.C.B.0XVXN.D.A.b.).Q.2.>.F.N ",
"W.^ #.l.&XU.*.I &.@.$.U M @.<.-.:.<.:.=.,.2.<.2.:.3.1.7.4.f.t.l.7.y.3.v.0.v.f.z.v.m.c.n.c.B.M.M.J.N.V.D.eXlXC.D.C.~.KX-X1.E J.m ",
"^.) _ &.V.y.X.^ %.@.-.Q N %.-.+.4.4.>.;.2.4.2.4.7.2.8.#.4.2.3.3.h.y.f.x.z.z.x.m.l.N.b.b.h.M.m.m.Z.M.B.G.3XxXC.B.S./.:Xu.+./ B.Z ",
"R.` / ) %._ E Q @.o.*.Q M &.*.$.&.=.=.>.3.,.-.,.&.a.N.`..X0X3XwX3X,X*X2XY.L.i.d.8.g.k.n.d.v.l.c.b.m.Z.Z.2XCXS.G.S.b.7.' [ 4.V.C ",
"T.[ ) / ^ E ~ ( O.X.$.R b #.@.=.o.+.$.-.,.>.8.l._.<XuXaXaX0X4X,X:X:XqXyXtX<X}.K.M.M.j.N.k.M.v.Z.J.n.K.n.8XVXc.b.V.C.A.P.N.F.L.m ",
"T.' / _ / ' X.{ ` ] @.W N $.X.&.*.$.O.@.-.q.K.<XhXlX$XY.a.r.r.p.y.a.t.g.B.[.7X8X*XY.t.p.q.g.g.Z.g.8.T.M.wXxXv.Z.v.V.V.m.G.V.Z.N ",
"~.~ ) ( ` ) ] } ..X.{ Q A %.&.#.#.;.$.<.k.=XyXrX!.8.3.b.E.=X8X<X).K.(.OXG.6.0.Z.-X4X].e.b.V.s.S.r.@.A.B.qXMXk.z.z.z.F.z.N.m.V.B ",
"Q._ _ / ' / _ ` ' O.} R C O.$.+.&.} q.Q.W.S..X&.-.!.sXNXMX7XI.j.E.s.e.P.4XyX{.h.5.d.{.^.D.S.P.U.u.O.k.r.;XBXm.B.C.g.x.v.v.Z.z.C ",
"C.( ` | -.#.+.{ ( .. .E B ..%.o.*.7.W.4XK._ ..A.tXMXsXqXdX<XU.C.@Xn.8.M.}.5XqX8Xv.3.W.1X+X}.@X(.b.r.E.v.2XNXg.k.a.4.[.L.3.-.b.B ",
"V.' ' &.p.8.#.U _ ) ..Q B | @.+.*.Y.5X X_ E E.zXiXqX7XhXcX7X(.j.b.0.<.v.E.@X&X}.2X$X;XXX.XOX(.a.:.3.~.S.5XlX0.f.b.!.DX3XO.{ c.V ",
"S.` ^  .q.1.] M ] ~ } U Z [ [ >.c.M.f.8.e.1.{.@X-X0XiXkXpXuX7XZ.C.6.5._.=X>X=XXX>X5X&X`.%X[.M.-.,.7.I.A.wXnXp.V.c.!.6X0.#.^ n.n ",
"V.( ( Q ) T I Z ] ) _ Z A ` ..k.k.y.Q ~ p.,.q.0.E.0XiXgXcXCXnX[./.h.K.JXBX4X3XrX:XOX}.%X@Xd.>.-.u.w.f.p.6XvXe.d.8.g.0.] } 2.b.m ",
"A.) } W H V H I ` ' ^ B N ] s.|.,X2.} S.c.g.K.o.z.0XfXgXzXvXzX}.P.t.N.bXhXqXqX;X+X*X;X&XA.^ { q.3.3.1.6.7XBXu.q.h.x.z.v.s.c.m.m ",
"D.T ) ~ ^ / _ ( ) ` ^ S v ../.iX`.` ).<XW.w.%.{ a.eXjXuXlXIXHX!.S.1.v.CXgX5XrX8X5X%X}.*XT.^ { l.&.8.4.6.4XcX9.:.2.k.2.n.3.c.<.C ",
"C.Y _ ^ _ ' ' / ` ] ^ A n j.oX8X+._.,X#X~.n.g.w.' w.rXZXdXCXKX@X5.@.j.]._.Q.`.+X>X*X+X$Xx.o...:.v.;.9.4.8XbX4.,.2.9.1.4.v.5.j.A ",
"A.R / ^ ) ) ] _ ` ^ / N J r.m.'.g.3X>X'.#XOXOX6Xs.e Y fXAX|.rXxX).oXH.y.B.R.M.p.[.-X%X{.g.:.*...f.6.6.y.>XmX6.7.3.5.&.3.6.d.6.m ",
"A.E !  .%.o..._ ' ( _ N T ;.v.L.g.^.#X+X&X,X<X:X3Xt.- ] bX@XG.UXLXnXW.D.@X<X@XA.M.-X<X/.w.&.,.&.9.g.4.8.).vX>.-.<.3.{.I.2.1.6.M ",
"C.E W -.w.1.o.R ' [ ) A / &.~.l.3.9.T.#XOX1X8X*XeXdXV.V e..XH..XgX Xd.'.qX,X3XE.C.*X|.D.e.&.3.9.<.Z.h.5.R.NX6.6.6.Y.HX<X#.X.>.S ",
"Z.Q T #.<.+.! Z _ ] ~ C &.w.!.;.q.2.u.c.D.).&XyX9XqXAX%X>.| 6./.cX&XD.T.+X:X$XJ.l.K.a.r.k.e.p.j.=.p.v.7.I.uX:.3.<./.4X0.+.] :.V ",
"S.( U ~ E J B N / ' _ m q.m.N.>.m.i.t.e.t.d.m.~.&X X/.iX#X&.e.8X<XXX:X~.N.U.n.3.8.Z.x.b.B.7.t.h.3.O.y.i.(.eX;.,.#.b.<.#._ 5.-.B ",
"Z._ W Y S S V I ^ [ ' N r.S.c.7.A.v.C.A.b.x.z.k.m.A.w.C.E.&X9Xn.[ 4.F.E.z.w.0.;.s.L.P.I.b.@.4.8.>.' =.q.!.uX<.-.2.4.,.8.:.3.6.M ",
"V.` ( ~ U ~ Y ] ( [ Q F 0.Z.N.@.c.Z.V.M.G.L.F.H.A.S.C.c.w.^./.W 8.n.` 3.n.-.e.t.6.>.O.8.y.<.k.r.w.f.i.i.I.dX2.;.%.=.,.:.-.,.2.B ",
"v.( / ! E R R ~ ` ] [ N q.Z.h.*.M.C.B.B.Y.F.I.E.Q.T.`._.N.z.h.+.J.T._ ,.x.&.$.3. .H m X.=.1.b.7.1.v.x.e.!.tX1.&.<.<.4.=.=.6.3.Z ",
"m._ ) ) ( ~ R E ! ` _ M s.J.k.:.G.C.F.M.L.K.J.(.(.[.{. XV.D._.%.{ } @.C.n.2.2.2.6.z.p.l.e.[ @.&.o._ $.1.!.sX<.1.6.,.2.>.<.>.#.m ",
"c.) ] { { ` ! Q E ) ) M h.U.v.-.E.A.S.f.c.N.v.^.~.].P.B.N.n.N.N.t.q.C.L.i.h.x.q.8./.E.U.Z.-.=.e.<.E $.4.R.yXO.$.$.8./.Q.8.:.7.C ",
"l./ } $.;.#.) Y ! ^ ` N q.K.A.@.J.S.m.i.a.p.a.L.[.T.b.m.F.2.{ n.K.H.V.q.9.A.Z.p.r.Q.Y.I.H.a.g.n.5.<.i.0.P.0XO.@.O.W.GX2X%.` 1.N ",
"v./ [ #.>.#.E C ^ W ` V o.C.T.$.h.D.z.g.d.0.a.V.E.U.E.{.l.| >.6.a.j.7.5.C.E.H.c.d.Y.T.I.B.s.b.b.-.b.b.4.G.4X*.*.$.~.;Xj.] { @.V ",
"b.) ) ^ E L Z C ! T ^ V Y k.~.8.e.H.k.f.r.<.u.m.V.'._.a.} :.z.h.N.D.k.u.n.D.F.d.s.K.Y.Y.V.g.v.k.0.L.c.:.F.1X%.%.o.2.1.] ..<.>.D ",
"x._ ) T S B S T W Q R B S e.U.b.2.S.n.f.q.6.u.Z.U.~.6.x | m.f.N.P.H.V.0.5.a.z.0.M.I.L.P.S.l.h.e.M.Z.d.*.D.8X%.&.$. .=.=.O.$.*.m ",
"x.) ] [ ' ) ~ / E _ I B A 4.A.P.o.v.H.m.h.z.h.U.T.s.l c x.E.x.k.w.;.s.f.b.B.M.A.I.R.J.G.B.j.d.5.Y.j.y.#.N.qX+.#.&.#.*.@.%.*.@.M ",
"z._ ! ] ' ! _ ! R ~ / M N @.j.E.s.X.B.A.N.G.C.B.M.,.~ e.L.L.H.t.9.4.t./.(.T.!.E.I.F.G.F.D.a.<.n.V.i.#.%.C.E.*.+.&.&.#.+.%.+.#.S ",
"b.{ ^ ' { ( ` / R E ! B m ) 3.M.L.-.w.T.M.Z.d.;.7.*.0.D.J.P.I.i.k.y.u.Q.W.K.T.R.R.G.G.G.V.w.<.M.t.3.X.*.B.E.&.#.+.@.&.%.&.&.&.b ",
"z.] ~ { *.O.' W ! T W A m I { 8.~.B.$.p.P.Z.s.G.4.o.d.K.C.R.Q.h.s.u.s./.(.U.Y.Y.F.C.A.G.N.r.6.g.j.u.3.e.S.!.#.+...q.H.C.4.&.<.Z ",
"v...{ =.u.7. .E _ W Q S V I Q o.m.(.a._ t.w.7.k.:.o.h.Y.G.U.H.t.w.r.q.A.H.S.S.C.D.D.S.D.A.N.m.c.m.f.9.p.V.~.#.#.*.V.>X/.$.W @.V ",
"k.{ ]  .;.o.U A [ ^ W V C W W / 2.x.F.' ! s.n.+.w.t.x.G.F.Z.x.6.i.0.| &.5.p.f.y.S.F.D.C.B.Z.S.m.D.h.0.y.v.Q.$.%.&.j.'.K.&.] *.n ",
"n.O. ./ W L Z D ' / E n N ~ Q R ' &.p.w.e.R.i.+.d.S.A.D.D.v.a.:.x.s.o.;.a.C.V.j.4.t.m.A.C.N.b.n.P.k.i.p.v.R.$.$.O.$.1.*.[ o.>.m ",
"c.} { R D A S L ` ( ! M M Q W E Y [ $.f.Q.n.A P 1.x.S.U.J.z.r.$.i.i.&.8.l.N.v.h.>.0.z.z.j.j.d.v.s.2.w.t.x.P.%.$.*.$.$.@.#.&.*.n ",
"v.[ X.' ~ ) ) _ ` _ ) Z N T E ~ Q Y ] *.h.6.o...t.7.6.s.z.x.k.7.z.c.4.q.t.q.e.g.W.K.v.%.] O.@.4.-. .8.r.x.J.$.#.@.%.%.$.=.#.+.V ",
"v.| ....' / ` ' ` / _ N V Y W T R E ~ `  .*.q.k.W.E.G.j.r.w.e.q.,.*.6.s.k.G./.~.P.j.=.| | ] X.2.>.` 1.x.v.A.$.=.$.O.$.#.*.%.+.Z ",
"x.[ { { ` / _ ) ' _ ] C S W ^ ! ! Q ^ ) ] ..=.5.j.A.Q.)._.).W.K.x.m.U._.^.U.C.f.3.$.` ) [ ] | *.e.,.8.p.l.D.O.o.&.&.:...+.&.&.v ",
"M... .+.*.&.+.[ ) ( ` M V U R T E R E W Q ~ _ } $.2.r.a.k.M.Z.C.S.Z.V.b.s.5.@.] ' _ ( ` } { { ..| #.-.>.d.J.+.o. .;.m.l.9...@.A ",
"z.{  .-.9.4.X.T / / ) M A E ! ~ ! Q Q ! ^ ( _ ' _ ] ` ~ ! ) ] [ ) ` ^ ~ ` ` _ ] ' [ ] ] [ { { { / X...[ 3.M.O.@...v.&XV.=._ &.N ",
"g.} X.%.,.+.R M ` ' ` m A R T R Q W W W ~ ) ` ` ! ( ` ` ` ' ` ) ( ' ) ( { ' ^ ) ( ) ) ( / ` [ [ | O.| { ,.x.X...%.f.W.8._ Q &.m ",
"b.$...^ E J Z C ` ` ( n F ! E E Q Q Q E Q ^ ( / ` ' ` _ ) ) _ ) ` ] ( ^ ' ' ) ] ) ( ` ' _ ] } [ ` ] ' o.5.x...] o...1.X.] / @.A ",
"v.#.[ P F A F I / ( / V ~ $.#.%.| ....} }  ...| #.#.#.$.$.%.%.%.$.%.#.@.%.$.+.+.%.+.$.*.#.#.%.@.+.:.-.>.7.f.} }  .O.%.~ ) +.*.m ",
"h.@.O.{  .{ ) ( ` ' ) Z ( *.%.&.@.&.*.$.#.%.$.@.@.@.#.%.&.%.$.#.#.$.=.<.3.5.4.2.6.,.<.5.2.1.3.1.2.z.m.v.k.z. .O.X.X.+.| @.=.#.M ",
"c.#.[ } .. ./ ` ) ( [ ] ! ) ' Y P ~ ^ U P Q ~ Y ^  ._ ' R ..` ( ~ | _ [ R } ) ( ~ | _ [ R } ) ( / X.]  .^ +.| | [ } o.X.[ %.$.C ",
"x.-.+.{ ..} ) { { ) ( W L ! [ ^ m P ! I D H T Q b ! ( ! Z Q ^ ` c Q ) ^ C W / } c Q ) ^ C W / } n / ] _ D ^ ` ..@.} ....} @.@.m ",
"h.%.X.] :.$._ ( [ ` ` / E ) } ) U Q / Q R E ! ~ L ] [ [ Y _ _ ] ( [ ) { Q ' / ` ( [ ) { Q ' / ` ! ' ( } /  .{ ..[ | 7.4.#.| O.M ",
"x.%.#.;.N.s.o.E / / ' ' ( ` ' ! ) Q Y Y W Q R U ! Q R ' ) [ ( ` } ' ~ { _ ' ~ ) } ' ~ { _ ' ~ ) } ' ^ | ' { ) ] [ 3.H.x.$.W { N ",
"c.$.+.&.h.>.L n ` _ ' ` ) ' [ _ ) ~ E E E E Q ^ Q R T ` _ ) ~ ` ~ ` ) ` ~ ` ) ` ~ ` ) ` ~ ` ) ` ^ ` _ ] ( [ ] { ..4.N.q.] Y | Z ",
"c.*...^ ' K N G _ _ _ ) ( _ ` ` ` ) ^ W T T W ^ Q ^ ^ ) ( ` ) ) ` ' _ ` ) _ ( ) ` ' _ ` ) _ ( ) ) _ ) ' ' { [ { _ ' O./ W (  .m ",
"h.:.+.Y C n M L ( ) _ ` ' _ ) ( ` ) ! R R W E Y T W W ! ( ] [ ' ^ ^ ( ` ) ^ ( [ ^ ^ ( ` ) ^ ( [ ) ( _ ' ) ^ / ' } _ / ! ( { } Z ",
"-.o.=.#.o.*.$.%.%.%.#.#.#.#.@.$.#.%.$.@.#.*.*.#.$.#.$.&.#.o.@.*.#.*.&.+.@.*.*.O.#.*.&.+.@.*.*.O.@.&.%.O.@.*.*.+.&.&.$.%.+.@.:.#."
};
