/* XPM */
static char *_3699_d97707f18d3e36e56d8d212892c429f16c237aaa5702d29270b75b841592ddb4[] = {
/* columns rows colors chars-per-pixel */
"64 64 256 2 ",
"   c black",
".  c #010101",
"X  c #020202",
"o  c gray1",
"O  c #040404",
"+  c gray2",
"@  c #060606",
"#  c #070707",
"$  c gray3",
"%  c #090909",
"&  c gray4",
"*  c #0B0B0B",
"=  c #0C0C0C",
"-  c gray5",
";  c #0E0E0E",
":  c gray6",
">  c #101010",
",  c #111111",
"<  c gray7",
"1  c #131313",
"2  c gray8",
"3  c #151515",
"4  c #161616",
"5  c gray9",
"6  c #181818",
"7  c #191919",
"8  c gray10",
"9  c #1B1B1B",
"0  c gray11",
"q  c #1D1D1D",
"w  c #1E1E1E",
"e  c gray12",
"r  c #202020",
"t  c gray13",
"y  c #222222",
"u  c #232323",
"i  c gray14",
"p  c #252525",
"a  c gray15",
"s  c #272727",
"d  c #282828",
"f  c gray16",
"g  c #2A2A2A",
"h  c gray17",
"j  c #2C2C2C",
"k  c #2D2D2D",
"l  c gray18",
"z  c #2F2F2F",
"x  c gray19",
"c  c #313131",
"v  c #323232",
"b  c gray20",
"n  c #343434",
"m  c #353535",
"M  c gray21",
"N  c #373737",
"B  c gray22",
"V  c #393939",
"C  c #3A3A3A",
"Z  c gray23",
"A  c #3C3C3C",
"S  c gray24",
"D  c #3E3E3E",
"F  c #3F3F3F",
"G  c gray25",
"H  c #414141",
"J  c gray26",
"K  c #434343",
"L  c #444444",
"P  c gray27",
"I  c #464646",
"U  c gray28",
"Y  c #484848",
"T  c #494949",
"R  c gray29",
"E  c #4B4B4B",
"W  c #4C4C4C",
"Q  c gray30",
"!  c #4E4E4E",
"~  c gray31",
"^  c #505050",
"/  c #515151",
"(  c gray32",
")  c #535353",
"_  c gray33",
"`  c #555555",
"'  c #565656",
"]  c gray34",
"[  c #585858",
"{  c gray35",
"}  c #5A5A5A",
"|  c #5B5B5B",
" . c gray36",
".. c #5D5D5D",
"X. c gray37",
"o. c #5F5F5F",
"O. c #606060",
"+. c gray38",
"@. c #626262",
"#. c gray39",
"$. c #646464",
"%. c #656565",
"&. c gray40",
"*. c #676767",
"=. c #686868",
"-. c DimGray",
";. c #6A6A6A",
":. c gray42",
">. c #6C6C6C",
",. c #6D6D6D",
"<. c gray43",
"1. c #6F6F6F",
"2. c gray44",
"3. c #717171",
"4. c #727272",
"5. c gray45",
"6. c #747474",
"7. c gray46",
"8. c #767676",
"9. c #777777",
"0. c gray47",
"q. c #797979",
"w. c gray48",
"e. c #7B7B7B",
"r. c #7C7C7C",
"t. c gray49",
"y. c #7E7E7E",
"u. c gray50",
"i. c #808080",
"p. c #818181",
"a. c gray51",
"s. c #838383",
"d. c #848484",
"f. c gray52",
"g. c #868686",
"h. c gray53",
"j. c #888888",
"k. c #898989",
"l. c gray54",
"z. c #8B8B8B",
"x. c gray55",
"c. c #8D8D8D",
"v. c #8E8E8E",
"b. c gray56",
"n. c #909090",
"m. c gray57",
"M. c #929292",
"N. c #939393",
"B. c gray58",
"V. c #959595",
"C. c gray59",
"Z. c #979797",
"A. c #989898",
"S. c gray60",
"D. c #9A9A9A",
"F. c #9B9B9B",
"G. c gray61",
"H. c #9D9D9D",
"J. c gray62",
"K. c #9F9F9F",
"L. c #A0A0A0",
"P. c gray63",
"I. c #A2A2A2",
"U. c gray64",
"Y. c #A4A4A4",
"T. c #A5A5A5",
"R. c gray65",
"E. c #A7A7A7",
"W. c gray66",
"Q. c #A9A9A9",
"!. c #AAAAAA",
"~. c gray67",
"^. c #ACACAC",
"/. c gray68",
"(. c #AEAEAE",
"). c #AFAFAF",
"_. c gray69",
"`. c #B1B1B1",
"'. c #B2B2B2",
"]. c gray70",
"[. c #B4B4B4",
"{. c gray71",
"}. c #B6B6B6",
"|. c #B7B7B7",
" X c gray72",
".X c #B9B9B9",
"XX c gray73",
"oX c #BBBBBB",
"OX c #BCBCBC",
"+X c gray74",
"@X c gray",
"#X c gray75",
"$X c #C0C0C0",
"%X c #C1C1C1",
"&X c gray76",
"*X c #C3C3C3",
"=X c gray77",
"-X c #C5C5C5",
";X c #C6C6C6",
":X c gray78",
">X c #C8C8C8",
",X c gray79",
"<X c #CACACA",
"1X c #CBCBCB",
"2X c gray80",
"3X c #CDCDCD",
"4X c #CECECE",
"5X c gray81",
"6X c #D0D0D0",
"7X c gray82",
"8X c #D2D2D2",
"9X c LightGray",
"0X c gray83",
"qX c #D5D5D5",
"wX c gray84",
"eX c #D7D7D7",
"rX c #D8D8D8",
"tX c gray85",
"yX c #DADADA",
"uX c gray86",
"iX c gainsboro",
"pX c #DDDDDD",
"aX c gray87",
"sX c #DFDFDF",
"dX c gray88",
"fX c #E1E1E1",
"gX c #E2E2E2",
"hX c gray89",
"jX c #E4E4E4",
"kX c gray90",
"lX c #E6E6E6",
"zX c #E7E7E7",
"xX c gray91",
"cX c #E9E9E9",
"vX c #EAEAEA",
"bX c gray92",
"nX c #ECECEC",
"mX c gray93",
"MX c #EEEEEE",
"NX c #EFEFEF",
"BX c gray94",
"VX c #F1F1F1",
"CX c gray95",
"ZX c #F3F3F3",
"AX c #F4F4F4",
"SX c gray96",
"DX c #F6F6F6",
"FX c gray97",
"GX c #F8F8F8",
"HX c #F9F9F9",
"JX c gray98",
"KX c #FBFBFB",
"LX c gray99",
"PX c #FDFDFD",
"IX c #FEFEFE",
"UX c white",
/* pixels */
"_ / ] / ] _ ' / | / ) { _ ( ' ` _ ) ! _ [ ` ^ [ ` / ' _ { ^ ) / ' ] ` ` ( ) ( ) ` ^ [ ( ] ^ [ / ) / / ) ` _ _ _ _ ` ! } ) ' ) ' ",
"5X3.8.5.%.3.x.k.z.b.z.N.I.A.z.B.Z.D.N.S.z.C.m.Z.k.k.c.j.c.x.b.c.d.x.v.a.7.2.2.2.2.,.8.1.6.2.8.>.<.7.8.3.>.<.1.1.8.-.4.1.-.2.1.B ",
"9X2.$.2.(.R.4.<.d.z.M.M.b.N.Z.B.A.v.Z.F.K.N.S.n.G.n.z.b.C.N.n.b.b.z.m.v.B.l.x.z.b.l.i.c.g.m.s.q.6.:.&.3.6.4.<.3.:.5.~.Q.8.-.0.b ",
"3X-.5.!.PX1X>.( 7.w.h.d.0.s.B.m.k.F.z.A.h.S.D.b.m.G.G.V.c.C.Z.Z.g.D.b.Z.a.F.v.v.j.m.N.n.f.n.b.g.k.c.z.c.j.c.z.x.l.(.BX3X>.` 7.M ",
"9X..:.Q.>Xu.] [ :.3.2.7.i.t.u.N.b.M.s.c.S.c.D.V.S.A.m.G.B.Z.m.Z.H.V.v.M.C.Z.n.x.H.h.c.n.S.g.x.c.m.z.s.b.x.v.g.k.b.Y.,Xw.[ _ k.M ",
"2X-.| :.9./ _ ,.3.2.1.1.1.1.9.d.1.g.3.m.i.N.k.A.x.Z.N.H.b.G.A.L.V.S.H.B.V.N.S.C.M.D.n.J.g.D.M.A.z.G.S.V.d.m.v.v.j.x.4.-./ 7.9.M ",
"7X-.&.@.O.>.6.4.4.2.6.:.} $.6.1.Q w.s.3.{ k.j.v.W z.V.u. .j.B.V.! D.F.M.| C.C.H._ F.A.b.) V.N.m.T c.H.r.| a.M.b.K.v.v.j.Z.d.g.S ",
"7X| *.-.O.:.@.2.,.8.3.:.4.6.1.1.<.>.8.z.=.M.2.v.l.V.j.M.a.S.m.V.z.Z.G.C.N.D.F.C.S.V.Z.H.Z.C.Z.A.S.G.N.J.M.D.m.C.z.Z.l.F.l.H.h.B ",
"6X+.%.:.o.#.#.*.%.,.<.) Y ~ E Q W W E Q ( Q T Q ! Q Y L ( Y ~ R W R ! ! W T ~ W T E R Y R ! ! R Q W Y P ] xXA.D.C.D.Z.c.m.c.C.M ",
"7Xo. .@.=.-.@.$.$.=.*.Y M D N b M M m Z U W W ^ P ^ ^ ( ~ E E ~ E / P ) Y ^ ! I W Q Q Q R E Q ^ W Q ~ [ V.SXZ.S.D.F.V.L.F.D.Z.C ",
"4XX.{ -.c.f.,.$.@.#.*.! K %.<.>.5.6.1.,.4.4.1.1.2.6.d.7.a.0.d.l.j.m.v.b.l.g.A.M.M.N.B.A.C.Z.C.D.Z.V.C.N.9XCXB.D.A.b.).Q.2.>.F.N ",
"W.^ #.l.&XU.*.I &.@.$.U M @.<.-.;.1.>.-.>.,.<.4.,.4.1.7.4.g.y.z.e.s.4.c.7.l.d.k.v.m.c.n.c.B.M.M.G.V.C.A.qXxXA.S.C.~.KX-X1.E J.m ",
"^.) _ &.V.y.X.^ %.@.-.Q N %.-.+.2.4.1.>.2.2.1.4.3.1.q.=.9.4.2.<.s.w.g.v.v.c.z.n.l.N.b.b.h.M.m.m.V.N.C.D.2XcXZ.M.S./.:Xu.+./ B.Z ",
"R.` / ) %._ E Q @.o.*.Q M &.*.$.*.=.*.,.6.1.-.;.*.a.n.~.'.5X2XtX9X1X-X,XL.J.t.f.8.g.k.n.d.v.l.c.v.m.A.C.1XZXD.G.S.b.7.' [ 4.V.C ",
"T.[ ) / ^ E ~ ( O.X.$.R b #.@.=.@.@.@.=.<.,.8.h.^.<XdXlXjXeX4X:X;X*XwXtXtX3X{.I.M.M.j.N.k.M.v.Z.K.b.J.m.8XBXc.n.V.C.A.P.N.F.L.m ",
"T.' / _ / ' X.{ ` ] @.W N $.X.&.=.&.@.@.*.8.J.2XgXlX$XU.u.q.e.a.i.i.u.s.m.|.5XqX*XY.t.p.q.g.g.Z.j.6.Y.N.eXlXx.A.v.V.V.m.G.V.Z.N ",
"~.~ ) ( ` ) ] } X.[ | W M $.$.$.@.*.$.=.b.@XiXdXY.3.2.v.!.OXwX7X`.I.^.=XF.7.w.N.#XqX).i.x.k.c.V.w.+.D.N.8XmXl.b.z.z.F.z.N.m.V.B ",
"Q._ _ / ' / _ ` } O.X.! V #.=.$.,.} 5._.H.S.@X+.3.Q.dXvXvX4XY.8.).g.5.Y.>XwX}.l.7.d.@XQ.N.P.I.H.p.O.k.i.<XMXc.n.C.g.x.v.v.Z.z.C ",
"C.( ` | -.#.+.{ ) .. .Q B ..=.X.#.5.L.3XE.+.W H.9XzXkX0XsX6X'.S.@XM.5.J..X0XqX3XD.:.K.3X@X).oX{.n.e.K.N.0XmXg.h.a.4.[.L.3.-.b.B ",
"V.' ' &.p.8.#.U / ) [ Q V { #. .1.L.0X|.( Y '.iXyX8X0XaXxX2X!.s.v.y.$.j.A.#X*X'.#X>X>X`./.OXoXu.:.5.I.D.9XhXy.g.b.!.DX3XO.{ c.V ",
"S.` ^  .q.1.] M ' ( ] Y F [ } -.l.S.g.q.x.&.]..X>XqXhXlXgXyX0XD.A.a.4.|.&XqX<X.X*X:X;X'.&X Xb.<.>.t.P.A.0XlXf.M.c.!.6X0.#.^ n.n ",
"V.( ( Q ) T I Z ` _ / C S _  .j.g.g.R _ q.1.p.0.R.7XiXsXjXcXCX/.(.x.n.KXxX5X=X0X1X%X{.@X$Xz.2.:.9.u.k.s.5XxXu.u.8.g.0.] } 2.b.m ",
"A.) } W H V H I ( ` ~ n M ' y. X>Xt./ P.x.p.L.[ M.0XtXfXbXlXAX_.!.h.f.BXpXrX4X>X*X<X@X#XG.~ X.r.-.3.2.6.8XZXa.0.h.x.z.v.s.c.m.m ",
"D.T ) ~ ^ / _ ( ' [ ' A n +.~.hX]._ /.#XQ.0.:._ d.yXiXpXcXxXJX^.Y.a.j.LXfXyXqX0X;X.X$X@XY...^ k.:.8.2.4.4XvX7.-.2.k.2.n.3.c.<.C ",
"C.Y _ ^ _ ' ' / ( | ^ A b j.=XwX{ oXXXXX Xl.g.h.{ a.aXMXdXcXFX@Xe.X.3.OX).^.(.@X:X-XoX*Xl.$.| %.m.;.6.2.0XmX4.;.2.9.1.4.v.5.j.A ",
"A.R / ^ ) ) ] _ ` ' / m S 7.n.^.f.<X%X.X$X'.$X,Xj.$ ' dXSXkXFXkXj.I.@XT.Z.T.F.y.`.:X$X}.p.<.-.+.j.7.5.e.;XnX7.8.3.5.&.3.6.d.6.m ",
"A.E !  .%.o..._ _ ` ' V R ;.N.U.j.].oX.X%X&X-X=XaXh.< R zXIXzXDXS.).aX2X6X].].U.l.>X6X{.w.:.1.:.0.h.5.7.^.xX>.,.<.3.{.I.2.1.6.M ",
"C.E W -.w.1.o.R ( ] ( A ~ $.~.k.;.s.E..X-X5X>X=X3XuXI.Q ,.eXPXNXc.K.yXsX&Xg.T.).l.=X.XJ.q.*.:.6.>.C.j.7.W.BX6.4.6.Y.HX<X#.X.>.S ",
"Z.Q T #.<.+.! Z ( ` ~ C %.0.W.;.9.1.d.v.S.].=XwX1XuXtX:X4.[ OXmX|..X3X!.f.W.,XT.k.R.p.e.f.y.u.z.*.u.x.8.R.sX:.<.<./.4X0.+.] :.V ",
"S.( U ~ E J B N ( _ ' N e.N.B.4.M.y.t.0.7.a.M.E.-X9XrXzX1X&.0.AXuX,X2X~.r.Q.D.:.6.J.z.b.B.e.t.c.7.o.q.r.).yX,.,.#.b.<.#._ 5.-.B ",
"Z._ W Y S S V I ` ] [ M 0.V.f.5.m.m.B.C.M.x.g.g.b.P.`.3X9X8XgXx.R &.p.^.c.8.5.r.9.Y.P.Y.v.#.-.6.<.' %.7.W.pX3.>.2.4.,.8.:.3.6.M ",
"V.` ( ~ U ~ Y ] _ ` ~ F 0.D.M.:.v.C.m.M.D.J.I.P.K.Z.V.m.J..X=X( 9.N./ t.N.7.c.s.5.e.:.t.i.2.d.s.0.s.i.i.I.dX4.,.%.=.,.:.-.,.2.B ",
"v.( / ! E R R ~ ' ^ { b q.K.f.-.B.D.C.V.Y.S.P.E.E.A.V.b.x.b.V.,.J.T...1.P.&.>.,.#.n k ] 3.:.M.e.:.S.M.u.~.dX<.&.<.<.4.=.=.6.3.Z ",
"m._ ) ) ( ~ R E / / ] N s.J.d.,.S.A.S.B.L.F.P./.E.W.P.Q.N.B.`.) ~ | _ M.F.4.t.0.<.h.d.g.a.` +.&. .Q ' <.W.iX%.1.6.,.2.>.<.>.#.m ",
"c.) ] { { ` ! Q W ^ _ C j.J.l.<.U.A.C.l.x.c.B.E.'.).[.(.!.J.T.T.*.e.h.I.i.b.P.p.6.).E.G.A.=.&.0.5.E X.7.Y.aX@.=.$.8./.Q.8.:.7.C ",
"l./ } $.;.#.) Y E ! ) C w.H.S.*.K.Z.M.g.u.t.g.A.W.Q.).Y.^.q._ x.).`.R.g.O.f.K.b.t.!.K.J.G.u.d.v.6.7.g.r.A.eX%.@.O.W.GX2X%.` 1.N ",
"v./ [ #.>.#.E C ! W ) M o.S.Q.#.x.B.n.x.p.q.s.n./.Y.L.^.N.' <.B.4.4.v.n.c.u.u.k.0.Q.R.Y.A.y.l.b.-.v.v.0.B.2X%.&.$.~.;Xj.] { @.V ",
"b.) ) ^ E L Z C ~ E ( n I b.^.3.y.C.v.h.w.6.u.m.F.Y.).c.%.*.V.J.i.e.Z.C.I.n.z.z.8.~.T.F.G.d.c.l.w.H.h.3.G.5X$.&.o.2.1.] ..<.>.D ",
"x._ ) T S B S T W W ! m C i.P.v.4.V.M.d.0.q.y.Z.L.`.l.g T A.I.G.y.a.m.v.x.N.b.0.m.!.H.V.J.h.v.w.v.Z.y.&.S.eX#.%.$. .=.=.O.$.*.m ",
"x.) ] [ ' ) ~ / R ! E B V 7.V.E.+.b.G.v.h.z.d.L.I.m.x a v.U.Z.S.1.<.e.S.f.z.m.B.R.I.L.P.S.e.v.2.I.n.i.%.M.eX .&.&.#.*.@.%.*.@.M ",
"z._ ! ] ' ! _ ! ~ Q ! V V o.g.^.t.#.C.B.B.J.V.C.b.6.Y 7.I.S.(.p.7.w.7.`./.(.W.T.I.H.F.A.H.s.-.x.S.u.,.$.D.W.*.$.&.&.#.+.%.+.#.S ",
"b.{ ^ ' { ( ` / W E Q B m ( 3.B.Y.>.r.Q.b.Z.f.1.4.;.w.A.K.D.R.u.f.d.8.!.U.U.P.U.K.G.H.F.V.0.,.Z.d.5.=.=.Z.W.&.%.+.@.&.%.&.&.&.b ",
"z.] ~ { *.O.' W Q R Q C b I } 7.W.Z.+.g.K.B.0.J.4.X.z.S.m.P.W.k.t.d.e.^.E.U.K.P.H.S.A.D.B.e.3.d.p.9.2.9.A.!.$.%...q.H.C.4.&.<.Z ",
"v...{ =.u.7. .E ) Q Q Z N I ! X.x.[.u.| u.a.6.D.>.} x.F.A.U.J.s.w.h.q.H.G.H.G.F.F.A.V.Z.S.Z.N.v.n.f.q.p.C.~.$.&.*.V.>X/.$.W @.V ",
"k.{ ]  .;.o.U A [ ! E C C E E / >.m.G.o.I s.g.] 9.9.b.S.P.G.n.6.r.u.} *.2.i.f.i.C.S.D.Z.m.C.F.C.F.l.w.p.v.Q.%.&.&.j.'.K.&.] *.n ",
"n.O. ./ W L Z D ' ~ R M V ! E R / ,.s.u.e._.a.$.d.Z.D.Z.K.M.h.=.f.g.| &.y.M.M.g.7.u.N.D.B.m.b.v.G.k.t.s.x.T.%.%.O.$.1.*.[ o.>.m ",
"c.} { R D A S L ) ( ^ M M ! Q T E O...w.U.n.C ~ 1.z.J.J.H.l.u.%.u.k.=.0.b.V.M.l.<.6.j.z.k.c.k.c.h.q.e.d.x.P.%.$.*.$.$.@.#.&.*.n ",
"v.[ X.' ~ ) ) _ ( ] ] V m ! ! E ~ U ' >.v.8. .| 6.2.y.s.x.l.j.8.g.m.3.0.i.q.r.d.!.K.N.;.` X.@.1.$.o.2.u.k.G.%.$.@.%.%.$.=.#.+.V ",
"v.| ....' / ` ' ` / _ N V Y W T W R ! [ o.&.0.z.!.E.S.d.9.q.t.y.:.=.7.i.p.N.!.(.L.k.;.{ { { O.<.1.' <.l.c.A.$.*.$.O.$.#.*.%.+.Z ",
"x.[ { { ` / _ ) ' _ ] C S W ^ ! ~ Q ~ _ [  .=.6.g.A.Q.).).^.U.S.n.m.L./.^.E.D.j.2.%.' ) [ [ | &.e.>.7.i.z.G.+.O.&.&.:...+.&.&.v ",
"M... .+.*.&.+.[ ) ( ` M V U R T R E E E W ~ _ { &.3.t.s.x.Z.H.J.K.A.m.c.h.w.*.[ ] ) / ` | { [ X.{ +.=.,.g.L.@.X. .;.m.l.9...@.A ",
"z.{  .-.9.4.X.T / / ) M A E ! ~ W ! ! W ! ) ` _ _ ] ] ( / ) ' ` _ ' ( ^ _ _ ( ' [ ' ' { } ] ] | ( o...{ 4.N.X.o...v.&XV.=._ &.N ",
"g.} X.%.,.+.R M ` ' ` m A R T R E Q Q R Q _ ' ) ! ( ` ` _ ` ) / ! ] ] _ ' / Q ) _ / ( ) ) ) ] { X.@.} [ ,.x...| %.f.W.8._ Q &.m ",
"b.$...^ E J Z C ` ` ( n F ! E E W ! Q R W / ( ^ [ ' ) ^ / _ { | ) ' ) / ] ' _ { _ ( _ ] ` ] } { ' ' _ ..4.c.o.{ o...1.X.] / @.A ",
"v.#.[ P F A F I / ( / V ~ $.#.%. .....| |  . . .@.@.#.#.#.+.o.X.%.$.+.@.&.*.#.@.%.@.$.&.#.$.%.+.+.-.*.:.8.h. .|  .O.%.~ ) +.*.m ",
"h.@.O.{  .{ ) ( ` ' ) Z ( *.%.&.$.%.*.*.%.$.#.$.$.#.#.$.%.&.&.*.$.%.=.>.2.3.2.<.5.<.2.3.<.2.4.,.3.x.M.b.l.x.| ..X.X.+.| @.=.#.M ",
"c.#.[ } .. ./ ` ) ( [ ] ! ) ' Y P ~ ^ U P Q ~ Y ^  ._ ' R ..` ( ~ | _ [ R } ) ( ~ | _ [ R } ) ( / X.]  .^ +.| | [ } o.X.[ %.$.C ",
"x.-.+.{ ..} ) { { ) ( W L ! [ ^ m P ! I D H T Q b ! ( ! Z Q ^ ` c Q ) ^ C W / } c Q ) ^ C W / } n / ] _ D ^ ` ..@.} ....} @.@.m ",
"h.%.X.] :.$._ ( [ ` ` / E ) } ) U Q / Q R E ! ~ L ] [ [ Y _ _ ] ( [ ) { Q ' / ` ( [ ) { Q ' / ` ! ' ( } /  .{ ..[ | 7.4.#.| O.M ",
"x.%.#.;.N.s.o.E / / ' ' ( ` ' ! ) Q Y Y W Q R U ! Q R ' ) [ ( ` } ' ~ { _ ' ~ ) } ' ~ { _ ' ~ ) } ' ^ | ' { ) ] [ 3.H.x.$.W { N ",
"c.$.+.&.h.>.L n ` _ ' ` ) ' [ _ ) ~ E E E E Q ^ Q R T ` _ ) ~ ` ~ ` ) ` ~ ` ) ` ~ ` ) ` ~ ` ) ` ^ ` _ ] ( [ ] { ..4.N.q.] Y | Z ",
"c.*...^ ' K N G _ _ _ ) ( _ ` ` ` ) ^ W T T W ^ Q ^ ^ ) ( ` ) ) ` ' _ ` ) _ ( ) ` ' _ ` ) _ ( ) ) _ ) ' ' { [ { _ ' O./ W (  .m ",
"h.:.+.Y C n M L ( ) _ ` ' _ ) ( ` ) ! R R W E Y T W W ! ( ] [ ' ^ ^ ( ` ) ^ ( [ ^ ^ ( ` ) ^ ( [ ) ( _ ' ) ^ / ' } _ / ! ( { } Z ",
"-.o.=.#.o.*.$.%.%.%.#.#.#.#.@.$.#.%.$.@.#.*.*.#.$.#.$.&.#.o.@.*.#.*.&.+.@.*.*.O.#.*.&.+.@.*.*.O.@.&.%.O.@.*.*.+.&.&.$.%.+.@.:.#."
};
