/* XPM */
static char *_7044_1c1e37332d14983c7b0e5e02f36ace979b59d52c43d512e3ffdb1f6d9535f53d[] = {
/* columns rows colors chars-per-pixel */
"64 64 256 2 ",
"   c black",
".  c #010101",
"X  c #020202",
"o  c gray1",
"O  c #040404",
"+  c gray2",
"@  c #060606",
"#  c #070707",
"$  c gray3",
"%  c #090909",
"&  c gray4",
"*  c #0B0B0B",
"=  c #0C0C0C",
"-  c gray5",
";  c #0E0E0E",
":  c gray6",
">  c #101010",
",  c #111111",
"<  c gray7",
"1  c #131313",
"2  c gray8",
"3  c #151515",
"4  c #161616",
"5  c gray9",
"6  c #181818",
"7  c #191919",
"8  c gray10",
"9  c #1B1B1B",
"0  c gray11",
"q  c #1D1D1D",
"w  c #1E1E1E",
"e  c gray12",
"r  c #202020",
"t  c gray13",
"y  c #222222",
"u  c #232323",
"i  c gray14",
"p  c #252525",
"a  c gray15",
"s  c #272727",
"d  c #282828",
"f  c gray16",
"g  c #2A2A2A",
"h  c gray17",
"j  c #2C2C2C",
"k  c #2D2D2D",
"l  c gray18",
"z  c #2F2F2F",
"x  c gray19",
"c  c #313131",
"v  c #323232",
"b  c gray20",
"n  c #343434",
"m  c #353535",
"M  c gray21",
"N  c #373737",
"B  c gray22",
"V  c #393939",
"C  c #3A3A3A",
"Z  c gray23",
"A  c #3C3C3C",
"S  c gray24",
"D  c #3E3E3E",
"F  c #3F3F3F",
"G  c gray25",
"H  c #414141",
"J  c gray26",
"K  c #434343",
"L  c #444444",
"P  c gray27",
"I  c #464646",
"U  c gray28",
"Y  c #484848",
"T  c #494949",
"R  c gray29",
"E  c #4B4B4B",
"W  c #4C4C4C",
"Q  c gray30",
"!  c #4E4E4E",
"~  c gray31",
"^  c #505050",
"/  c #515151",
"(  c gray32",
")  c #535353",
"_  c gray33",
"`  c #555555",
"'  c #565656",
"]  c gray34",
"[  c #585858",
"{  c gray35",
"}  c #5A5A5A",
"|  c #5B5B5B",
" . c gray36",
".. c #5D5D5D",
"X. c gray37",
"o. c #5F5F5F",
"O. c #606060",
"+. c gray38",
"@. c #626262",
"#. c gray39",
"$. c #646464",
"%. c #656565",
"&. c gray40",
"*. c #676767",
"=. c #686868",
"-. c DimGray",
";. c #6A6A6A",
":. c gray42",
">. c #6C6C6C",
",. c #6D6D6D",
"<. c gray43",
"1. c #6F6F6F",
"2. c gray44",
"3. c #717171",
"4. c #727272",
"5. c gray45",
"6. c #747474",
"7. c gray46",
"8. c #767676",
"9. c #777777",
"0. c gray47",
"q. c #797979",
"w. c gray48",
"e. c #7B7B7B",
"r. c #7C7C7C",
"t. c gray49",
"y. c #7E7E7E",
"u. c gray50",
"i. c #808080",
"p. c #818181",
"a. c gray51",
"s. c #838383",
"d. c #848484",
"f. c gray52",
"g. c #868686",
"h. c gray53",
"j. c #888888",
"k. c #898989",
"l. c gray54",
"z. c #8B8B8B",
"x. c gray55",
"c. c #8D8D8D",
"v. c #8E8E8E",
"b. c gray56",
"n. c #909090",
"m. c gray57",
"M. c #929292",
"N. c #939393",
"B. c gray58",
"V. c #959595",
"C. c gray59",
"Z. c #979797",
"A. c #989898",
"S. c gray60",
"D. c #9A9A9A",
"F. c #9B9B9B",
"G. c gray61",
"H. c #9D9D9D",
"J. c gray62",
"K. c #9F9F9F",
"L. c #A0A0A0",
"P. c gray63",
"I. c #A2A2A2",
"U. c gray64",
"Y. c #A4A4A4",
"T. c #A5A5A5",
"R. c gray65",
"E. c #A7A7A7",
"W. c gray66",
"Q. c #A9A9A9",
"!. c #AAAAAA",
"~. c gray67",
"^. c #ACACAC",
"/. c gray68",
"(. c #AEAEAE",
"). c #AFAFAF",
"_. c gray69",
"`. c #B1B1B1",
"'. c #B2B2B2",
"]. c gray70",
"[. c #B4B4B4",
"{. c gray71",
"}. c #B6B6B6",
"|. c #B7B7B7",
" X c gray72",
".X c #B9B9B9",
"XX c gray73",
"oX c #BBBBBB",
"OX c #BCBCBC",
"+X c gray74",
"@X c gray",
"#X c gray75",
"$X c #C0C0C0",
"%X c #C1C1C1",
"&X c gray76",
"*X c #C3C3C3",
"=X c gray77",
"-X c #C5C5C5",
";X c #C6C6C6",
":X c gray78",
">X c #C8C8C8",
",X c gray79",
"<X c #CACACA",
"1X c #CBCBCB",
"2X c gray80",
"3X c #CDCDCD",
"4X c #CECECE",
"5X c gray81",
"6X c #D0D0D0",
"7X c gray82",
"8X c #D2D2D2",
"9X c LightGray",
"0X c gray83",
"qX c #D5D5D5",
"wX c gray84",
"eX c #D7D7D7",
"rX c #D8D8D8",
"tX c gray85",
"yX c #DADADA",
"uX c gray86",
"iX c gainsboro",
"pX c #DDDDDD",
"aX c gray87",
"sX c #DFDFDF",
"dX c gray88",
"fX c #E1E1E1",
"gX c #E2E2E2",
"hX c gray89",
"jX c #E4E4E4",
"kX c gray90",
"lX c #E6E6E6",
"zX c #E7E7E7",
"xX c gray91",
"cX c #E9E9E9",
"vX c #EAEAEA",
"bX c gray92",
"nX c #ECECEC",
"mX c gray93",
"MX c #EEEEEE",
"NX c #EFEFEF",
"BX c gray94",
"VX c #F1F1F1",
"CX c gray95",
"ZX c #F3F3F3",
"AX c #F4F4F4",
"SX c gray96",
"DX c #F6F6F6",
"FX c gray97",
"GX c #F8F8F8",
"HX c #F9F9F9",
"JX c gray98",
"KX c #FBFBFB",
"LX c gray99",
"PX c #FDFDFD",
"IX c #FEFEFE",
"UX c white",
/* pixels */
"_ / ] / ] _ ' / | / ) { _ ( ' ` _ ) ! _ [ ` ^ [ ` / ' _ { ^ ) / ' ] ` ` ( ) ( ) ` ^ [ ( ] ^ [ / ) / / ) ` _ _ _ _ ` ! } ) ' ) ' ",
"5X3.8.5.%.3.x.k.z.b.z.N.I.A.z.B.Z.D.N.S.z.C.m.Z.k.k.c.j.c.x.b.c.d.x.v.a.7.2.2.2.2.,.8.1.6.2.8.>.<.7.8.3.>.<.1.1.8.-.4.1.-.2.1.B ",
"9X2.$.2.(.R.4.<.d.z.M.M.b.N.Z.B.A.v.Z.F.K.N.S.n.G.n.z.b.C.N.n.b.b.z.m.v.B.l.x.z.b.l.i.c.g.m.s.q.6.:.&.3.6.4.<.3.:.5.~.Q.8.-.0.b ",
"3X-.5.!.PX1X>.( 7.w.h.d.0.s.B.m.k.F.z.A.h.S.D.b.m.G.G.V.c.C.Z.Z.g.D.b.Z.a.F.v.v.j.m.N.n.f.n.b.g.k.c.z.c.j.c.z.x.l.(.BX3X>.` 7.M ",
"9X..:.Q.>Xu.] [ :.3.2.7.i.t.u.N.b.M.s.c.S.c.D.V.S.A.m.G.B.Z.m.Z.H.V.v.M.C.Z.n.x.H.h.c.n.S.g.x.c.m.z.s.b.x.v.g.k.b.Y.,Xw.[ _ k.M ",
"2X-.| :.9./ _ ,.3.2.1.1.1.1.9.d.1.g.3.m.i.N.k.A.x.Z.N.H.b.G.A.L.V.S.H.B.V.N.S.C.M.D.n.J.g.D.M.A.z.G.S.V.d.m.v.v.j.x.4.-./ 7.9.M ",
"7X-.&.@.O.>.6.4.4.2.6.:.} $.6.1.Q w.s.3.{ k.j.v.W z.V.u. .j.B.V.! D.F.M.| C.C.H._ F.A.b.) V.N.m.T c.H.r.| a.M.b.K.v.v.j.Z.d.g.S ",
"7X| *.-.O.:.@.2.,.8.3.:.4.6.1.1.<.>.8.z.=.M.2.v.l.V.j.M.a.S.m.V.z.Z.G.C.N.D.F.C.S.V.Z.H.Z.C.Z.A.S.G.N.J.M.D.m.C.z.Z.l.F.l.H.h.B ",
"6X+.%.:.o.#.#.*.%.,.<.) Y ~ E Q Q W R R E W W W ! ~ Q T ~ E E ! Q W U Q ~ R Q E T ~ ^ R T Q ! R ~ E Q J ..fXF.Z.C.D.Z.c.m.c.C.M ",
"7Xo. .@.=.-.@.$.$.=.*.Y M D N b m M V F P R W W T W U ( ~ ~ P E R / W ! T R W R T E W W Q Q ! ! Y ! W / G.FXC.F.D.F.V.L.F.D.Z.C ",
"4XX.{ -.c.f.,.$.@.#.*.! K %.<.>.8.4.1.<.3.4.3.1.>.8.s.0.p.q.j.m.l.b.d.x.j.M.M.b.B.N.M.V.S.F.D.S.F.A.G.S.7XBXN.A.A.b.).Q.2.>.F.N ",
"W.^ #.l.&XU.*.I &.@.$.U M @.<.-.2.:.&.&.;.1.3.4.3.7.*.5.5.h.p.h.w.f.r.h.q.s.j.M.m.N.m.c.x.n.N.N.S.m.Z.D.7XjXA.Z.C.~.KX-X1.E J.m ",
"^.) _ &.V.y.X.^ %.@.-.Q N %.-.+.1.<.<.<.1.1.<.,.>.5.h.x.!._.<XeX<X8X:X9X*XoXG.g.j.l.v.m.m.m.m.M.n.S.n.Z.8XmXG.F.S./.:Xu.+./ B.Z ",
"R.` / ) %._ E Q @.o.*.Q M &.*.$.%.-.<.1.,.:.:.>.f./.:XfXfXcXqX3X:X3X=X7X9XiX6X$XR.Z.l.j.c.b.c.z.F.P.B.E.[.lXF.C.S.b.7.' [ 4.V.C ",
"T.[ ) / ^ E ~ ( O.X.$.R b #.@.=.@.&.=.*.-.6.g.V.<XsXlX%XP.i.w.q.s.s.r.s.a.b.).2X3X;X).m.f.z.m.v.Z.j.2.T.N.zXS.n.V.C.A.P.N.F.L.m ",
"T.' / _ / ' X.{ ` ] @.W N $.X.&.&.%.#.@.<.v.oXpXpXR.2.3.v.~.$XwX4X_.I.oX@XS.y.8.Z.=X7XQ.f.h.v.j.x.f.{ I.C.VXk.V.v.V.V.m.G.V.Z.N ",
"~.~ ) ( ` ) ] } ..+.| Q C %.*.o.@.=.| 9.W.K.D.&X..3.(.pXcXxX3XT.t.}.i.-.~.:X9XXXk.*.v..X'.U.G.I.K.f.o.d.y.ZXx.c.z.z.F.z.N.m.V.B ",
"Q._ _ / ' / _ ` [  .| E N @.&.O.&.+.7.L.eXK.o.^ L.4XnXgXtXhXwX~.N.XXN.3.S. XyX6XwXF.-.P.1X XOX}.{.B.s.J.S.lXj.z.C.g.x.v.v.Z.z.C ",
"C.( ` | -.#.+.{ _ [  .E N O.$.o.%.5.I.2X-XW H ].uXuX5X7XiXdX4X~.i.n.w.@.g.H.%X@X).oX@X*X%X{.{..Xf.o.7.!.G.zXn.v.a.4.[.L.3.-.b.B ",
"V.' ' &.p.8.#.U ` ' ..E Z X.o. .*.u.A.v.1.l.9.^.#X4XuXaXgXlXfXeXA.C.w.w.@X@X:X*X}.0X8X=X{. X+XM.>.5.w.H.F.BX8.c.b.!.DX3XO.{ c.V ",
"S.` ^  .q.1.] M ' _ } P A } { @.b.v.k.R @.3.+.c.>.K.0XyXpXxXzXSX).`.f.x.ZXgXrX9XqX=XOX+X%X}.x.=.6.5.s.x.k.NXf.z.c.!.6X0.#.^ n.n ",
"V.( ( Q ) T I Z _ ( ` A C ` } e.}.1X<.! U.v.g.J.} V.0XyXdXvXsXAX~.`.j.l.FXaX8X3X4X+X:XXX$XL.^ X.e.2.2.,.`.cXe.f.8.g.0.] } 2.b.m ",
"A.) } W H V H I ) ) _ m V _ =.W.dX_.X.`.oX_.9.=.` h.4XaXrXjXnXIXE.N.i.x.CXpXpXeX3X9X X X<XJ.O.W j.8.<.w.qXmXs.6.h.x.z.v.s.c.m.m ",
"D.T ) ~ ^ / _ ( _ ] ' n C ' 9.3X9XO./.&X X[.d.v.p.( s.yXMXjXzXVX[.3.@.3.=X/.'.W.@X:X;X*X.Xm.%.' ;.m.:.4.9XmX9.,.2.k.2.n.3.c.<.C ",
"C.Y _ ^ _ ' ' / ( _ ` V m | 0.g.^.z.9X;X|.$X.X%X%Xj.1 ` sXLXlXb.4X5X).#XI.u.J.C.f.R.5X.XXXf.:.=.+.f.0.7.tXvX4.5.2.9.1.4.v.5.j.A ",
"A.R / ^ ) ) ] _ ^ { _ m V o.1.Z.Q.i.W.}.OX%X@X%X,X7Xf.& ( cXUXf.T.KXsXfXF.b.&X*XG.M.<X4X.Xt.,.2.$.9.j.y.#XMX4.1.3.5.&.3.6.d.6.m ",
"A.E !  .%.o..._ / [ _ M C &.<.E.p.1.a.^.&X;X1X,X2X%XcXL.Q :.gX5Xg.6X8X&Xj.%X=X@X).m.$X XF.0.>.:.7.>.n.k.T.MX,.,.<.3.{.I.2.1.6.M ",
"C.E W -.w.1.o.R ` ( ` C m 5.e.W.3.w.,.y.k.D..X:X5X<X:X=X#Xo.+.oXb. X4XT.8.*X2X#XK.x.Y.s.e.d.e.t.z.3.u.x.Y.mX1.9.6.Y.HX<X#.X.>.S ",
"Z.Q T #.<.+.! Z ' ~ ` Z n u.z.G.2.N.f.s.w.w.d.l.'.1X7XG.^./.{ 1.bXqX>X1X`.v.T.Z.w.8.D.z.c.A.t.a.l.6. .9.K.aX=.1.<./.4X0.+.] :.V ",
"S.( U ~ E J B N _ ) _ V N s.C.m.;.M.v.B.C.N.v.v.f.g.L.XX].Y.Z.fXi._ +.d.[.g.e.g.e.0.T.E.F.m.%.*.6.>.( &.A.tX>.>.#.b.<.#._ 5.-.B ",
"Z._ W Y S S V I ) ' ( V C y.J.j.4.V.c.b.D.D.G.K.H.Q.c.N.K.H.)..X/ 4.Z.` 5.V.#.8.3.:.5.,.e.j.>.l.a.0.f.r.C.tX>.%.2.4.,.8.:.3.6.M ",
"V.` ( ~ U ~ Y ] _ ` ( S V 8.Y.d.=.V.N.N.G.A.K.K.W.U.'.!.Q.z.f.N.#./.!.( ..Z...O.>.&.A s } 8.o.H.9.$.U.c.M.sX6.3.%.=.,.:.-.,.2.B ",
"v.( / ! E R R ~ ^ ` ' b A h.P.g.<.J.D.A.M.~.V.L.(.!.|.'.I.N.V.|.E ..O.[ S.V.6.s.8.>.B.k.h.p.{ / $.#.T { V.tX>.$.<.<.4.=.=.6.3.Z ",
"m._ ) ) ( ~ R E / ) ) b D g.P.c.2.U.H.C.s.v.x.B.Q.`.R.v.V.F.n.A.L.e.8.m.I.0.6.h.a.9.~.Y.F.V.4.,.r.,.{ #.G.tX-.,.6.,.2.>.<.>.#.m ",
"c.) ] { { ` ! Q ! ^ ) N S r.H.G.#.F.G.N.d.u.p.l.A.E.E.F.R.!.i.( I.Q.P.Z.g.w.m.h.y.3.~.W.K.J.s.s.c.2.7.r.Y.eX$.=.$.8./.Q.8.:.7.C ",
"l./ } $.;.#.) Y T ~ ' C B :.C.^.O.c.A.x.x.a.8.j.n.Q.T.W..Xn.} O.w.k.8.2.g.A.K.S.k.w.~.U.H.F.s.k.n.<.v.v.L.7X$.o.O.W.GX2X%.` 1.N ",
"v./ [ #.>.#.E C T ! _ C M o.z.).0.a.D.k.f.p.>.f.v.B.Q.!.f.X.#.v.S.D.v.e.z.U.H.J.g.s.!.K.J.S.f.M.z.0.D.z.C.3X&.#.$.~.;Xj.] { @.V ",
"b.) ) ^ E L Z C Q Q Q N B | t.I.x.4.C.V.p.p.4.u.I.Z.{.u.h ( x.u.D.V.I.t.>.f.n.j.r.g.R.H.K.Z.k.B.y.z.D.a.A.8X$.%.o.2.1.] ..<.>.D ",
"x._ ) T S B S T Q W R N C ' 1.M.D.;.a.K.k.l.l.d.J.Y.c.N z d.I.F.C.6.4.q.z.f.z.c.V.D.Q.K.L.C.k.i.q.D.n.0.F.qX@.#.$. .=.=.O.$.*.m ",
"x.) ] [ ' ) ~ / Y W ! C C ^ &.l.^.3.,.H.M.M.K.n.Z.b.,.I t.!.m.W.9.d.2.7.'.^.~.!.!.I.P.A.G.C.l.<.a.P.a.>.M.8X%.#.&.#.*.@.%.*.@.M ",
"z._ ! ] ' ! _ ! W R W V B ~  .>.S.!.} t.L.Z.C.s.:.,.*.f.l.H.P.W.p.i.k.w.R.U.I.K.K.G.Y.G.A.H.3.:.L.g.-.=.m.~.#.%.&.&.#.+.%.+.#.S ",
"b.{ ^ ' { ( ` / Q E W B m T ( X.6.Y.I.| c.K.H.r.S.8...k.F.L.S.U.g.t.d.y./.E.U.L.T.A.A.F.G.G.q.w.d.p.w.9.B.~.+.#.+.@.&.%.&.&.&.b ",
"z.] ~ { *.O.' W ! W W N m Y E ( } C.~.a.{ t.4.7.Z.7...j.G.K.S.U.s.t.d.w.P.G.S.Z.D.P.J.V.b.H.N.B.M.M.h.5.g.E.O.$...q.H.C.4.&.<.Z ",
"v...{ =.u.7. .E ^ Q Q V B W Q / | 1.z.D.{ / l.v. .3.w.M.S.J.V.b.4.e.w.) *.6.d.g.p.V.H.K.B.A.B.V.A.F.v.8.s.^.%.&.*.V.>X/.$.W @.V ",
"k.{ ]  .;.o.U A ) ~ Q B V ! ~ ^ ^ ' <.p.0.6.`.8.@.c.S.A.N.S.n.i.*.h.v. .&.a.B.l.x.9.2.N.F.N.x.V.n.Z.v.t.s.!.$.#.&.j.'.K.&.] *.n ",
"n.O. ./ W L Z D ` / ! M M W E E R ' ` &.r.^.b.G Y 3.h.A.T.T.m.r.$.a.l.O.,.x.F.b.p.8.7.v.z.j.h.M.l.j.8.7.p.T.@.O.O.$.1.*.[ o.>.m ",
"c.} { R D A S L _ ( ~ N M W E R ) / ( / 2.n.8._ ..7.0.e.f.j.j.j.y.d.j.5.q.t.t.e.h.P.^.A.>.#... .8.<.{ 4.j.E.&.@.*.$.$.@.#.&.*.n ",
"v.[ X.' ~ ) ) _ ) ( / V V ~ ! W Y W ( [ _ ` 3.t.g.W.!.C.f.q.e.u.8.=.1.6.d.a.m.~./.L.h.=.! ..X. .2.-._ 7.f.F.+.&.@.%.%.$.=.#.+.V ",
"v.| ....' / ` ' ` / _ N V Y W T ^ R E ) ` ( _ | y.j.A.E._._.Q.U.V.N.B.J./.].W.A.k.q.%.{ { ....| ,.0.<.4.f.N.+.%.$.O.$.#.*.%.+.Z ",
"x.[ { { ` / _ ) ' _ ] C S W ^ ! ^ Q ! _ ` ) ` { ( +.6.u.s.j.N.G.Y.L.A.m.x.s.5.$.o.} ` _ ' { | | } @.O.,.z.K.$.+.&.&.:...+.&.&.v ",
"M... .+.*.&.+.[ ) ( ` M V U R T R R E Q ~ ^ / / _ ' [ ' / ^ _ [ ( ` ] ' ' ] ' ) W ^ _ ] [ [ } | |  . .$.s.H.O.X. .;.m.l.9...@.A ",
"z.{  .-.9.4.X.T / / ) M A E ! ~ E ! ! Q ! ) ` _ ] _ / ( ` ] _ / ( _ ` _ ) ) ' ] ` ] { { [ [ { | | | ..X.9.C.o.$...v.&XV.=._ &.N ",
"g.} X.%.,.+.R M ` ' ` m A R T R R Q Q T E ( ' _ ( _ ' ' ' ` ` ' ] ` ) ( ( ( ( ) _ ) ( ( _ ' ] [ |  .o. .<.x.` { %.f.W.8._ Q &.m ",
"b.$...^ E J Z C ` ` ( n F ! E E E Q Q R E / _ ) ( ` ' _ / ^ ) ' ] ) / ) ' ' ` ` ` ) ( _ [ } { ] ) ' { { >.c.X.O.o...1.X.] / @.A ",
"v.#.[ P F A F I / ( / V ~ $.#.%.|  . .| | ..X...&.$.@.@.#.%.&.&.*.$.#.*.*.$.@.@.%.$.$.$.%.%.$.@.$.<.2.,.6.l.o... .O.%.~ ) +.*.m ",
"h.@.O.{  .{ ) ( ` ' ) Z ( *.%.&.#.$.%.&.%.#.+.+.&.%.$.%.%.%.%.$.#.#.=.1.4.2.2.5.3.4.4.3.1.1.3.5.<.g.n.c.g.c.X.{ X.X.+.| @.=.#.M ",
"c.#.[ } .. ./ ` ) ( [ ] ! ) ' Y P ~ ^ U P Q ~ Y ^  ._ ' R ..` ( ~ | _ [ R } ) ( ~ | _ [ R } ) ( / X.]  .^ +.| | [ } o.X.[ %.$.C ",
"x.-.+.{ ..} ) { { ) ( W L ! [ ^ m P ! I D H T Q b ! ( ! Z Q ^ ` c Q ) ^ C W / } c Q ) ^ C W / } n / ] _ D ^ ` ..@.} ....} @.@.m ",
"h.%.X.] :.$._ ( [ ` ` / E ) } ) U Q / Q R E ! ~ L ] [ [ Y _ _ ] ( [ ) { Q ' / ` ( [ ) { Q ' / ` ! ' ( } /  .{ ..[ | 7.4.#.| O.M ",
"x.%.#.;.N.s.o.E / / ' ' ( ` ' ! ) Q Y Y W Q R U ! Q R ' ) [ ( ` } ' ~ { _ ' ~ ) } ' ~ { _ ' ~ ) } ' ^ | ' { ) ] [ 3.H.x.$.W { N ",
"c.$.+.&.h.>.L n ` _ ' ` ) ' [ _ ) ~ E E E E Q ^ Q R T ` _ ) ~ ` ~ ` ) ` ~ ` ) ` ~ ` ) ` ~ ` ) ` ^ ` _ ] ( [ ] { ..4.N.q.] Y | Z ",
"c.*...^ ' K N G _ _ _ ) ( _ ` ` ` ) ^ W T T W ^ Q ^ ^ ) ( ` ) ) ` ' _ ` ) _ ( ) ` ' _ ` ) _ ( ) ) _ ) ' ' { [ { _ ' O./ W (  .m ",
"h.:.+.Y C n M L ( ) _ ` ' _ ) ( ` ) ! R R W E Y T W W ! ( ] [ ' ^ ^ ( ` ) ^ ( [ ^ ^ ( ` ) ^ ( [ ) ( _ ' ) ^ / ' } _ / ! ( { } Z ",
"-.o.=.#.o.*.$.%.%.%.#.#.#.#.@.$.#.%.$.@.#.*.*.#.$.#.$.&.#.o.@.*.#.*.&.+.@.*.*.O.#.*.&.+.@.*.*.O.@.&.%.O.@.*.*.+.&.&.$.%.+.@.:.#."
};
