/* XPM */
static char *_6785_3886e2fbb8686c8040b02b69b8dd7413b52b9f10cb857b45c39b32a3fa14cfa4[] = {
/* columns rows colors chars-per-pixel */
"64 64 256 2 ",
"   c black",
".  c #010101",
"X  c #020202",
"o  c gray1",
"O  c #040404",
"+  c gray2",
"@  c #060606",
"#  c #070707",
"$  c gray3",
"%  c #090909",
"&  c gray4",
"*  c #0B0B0B",
"=  c #0C0C0C",
"-  c gray5",
";  c #0E0E0E",
":  c gray6",
">  c #101010",
",  c #111111",
"<  c gray7",
"1  c #131313",
"2  c gray8",
"3  c #151515",
"4  c #161616",
"5  c gray9",
"6  c #181818",
"7  c #191919",
"8  c gray10",
"9  c #1B1B1B",
"0  c gray11",
"q  c #1D1D1D",
"w  c #1E1E1E",
"e  c gray12",
"r  c #202020",
"t  c gray13",
"y  c #222222",
"u  c #232323",
"i  c gray14",
"p  c #252525",
"a  c gray15",
"s  c #272727",
"d  c #282828",
"f  c gray16",
"g  c #2A2A2A",
"h  c gray17",
"j  c #2C2C2C",
"k  c #2D2D2D",
"l  c gray18",
"z  c #2F2F2F",
"x  c gray19",
"c  c #313131",
"v  c #323232",
"b  c gray20",
"n  c #343434",
"m  c #353535",
"M  c gray21",
"N  c #373737",
"B  c gray22",
"V  c #393939",
"C  c #3A3A3A",
"Z  c gray23",
"A  c #3C3C3C",
"S  c gray24",
"D  c #3E3E3E",
"F  c #3F3F3F",
"G  c gray25",
"H  c #414141",
"J  c gray26",
"K  c #434343",
"L  c #444444",
"P  c gray27",
"I  c #464646",
"U  c gray28",
"Y  c #484848",
"T  c #494949",
"R  c gray29",
"E  c #4B4B4B",
"W  c #4C4C4C",
"Q  c gray30",
"!  c #4E4E4E",
"~  c gray31",
"^  c #505050",
"/  c #515151",
"(  c gray32",
")  c #535353",
"_  c gray33",
"`  c #555555",
"'  c #565656",
"]  c gray34",
"[  c #585858",
"{  c gray35",
"}  c #5A5A5A",
"|  c #5B5B5B",
" . c gray36",
".. c #5D5D5D",
"X. c gray37",
"o. c #5F5F5F",
"O. c #606060",
"+. c gray38",
"@. c #626262",
"#. c gray39",
"$. c #646464",
"%. c #656565",
"&. c gray40",
"*. c #676767",
"=. c #686868",
"-. c DimGray",
";. c #6A6A6A",
":. c gray42",
">. c #6C6C6C",
",. c #6D6D6D",
"<. c gray43",
"1. c #6F6F6F",
"2. c gray44",
"3. c #717171",
"4. c #727272",
"5. c gray45",
"6. c #747474",
"7. c gray46",
"8. c #767676",
"9. c #777777",
"0. c gray47",
"q. c #797979",
"w. c gray48",
"e. c #7B7B7B",
"r. c #7C7C7C",
"t. c gray49",
"y. c #7E7E7E",
"u. c gray50",
"i. c #808080",
"p. c #818181",
"a. c gray51",
"s. c #838383",
"d. c #848484",
"f. c gray52",
"g. c #868686",
"h. c gray53",
"j. c #888888",
"k. c #898989",
"l. c gray54",
"z. c #8B8B8B",
"x. c gray55",
"c. c #8D8D8D",
"v. c #8E8E8E",
"b. c gray56",
"n. c #909090",
"m. c gray57",
"M. c #929292",
"N. c #939393",
"B. c gray58",
"V. c #959595",
"C. c gray59",
"Z. c #979797",
"A. c #989898",
"S. c gray60",
"D. c #9A9A9A",
"F. c #9B9B9B",
"G. c gray61",
"H. c #9D9D9D",
"J. c gray62",
"K. c #9F9F9F",
"L. c #A0A0A0",
"P. c gray63",
"I. c #A2A2A2",
"U. c gray64",
"Y. c #A4A4A4",
"T. c #A5A5A5",
"R. c gray65",
"E. c #A7A7A7",
"W. c gray66",
"Q. c #A9A9A9",
"!. c #AAAAAA",
"~. c gray67",
"^. c #ACACAC",
"/. c gray68",
"(. c #AEAEAE",
"). c #AFAFAF",
"_. c gray69",
"`. c #B1B1B1",
"'. c #B2B2B2",
"]. c gray70",
"[. c #B4B4B4",
"{. c gray71",
"}. c #B6B6B6",
"|. c #B7B7B7",
" X c gray72",
".X c #B9B9B9",
"XX c gray73",
"oX c #BBBBBB",
"OX c #BCBCBC",
"+X c gray74",
"@X c gray",
"#X c gray75",
"$X c #C0C0C0",
"%X c #C1C1C1",
"&X c gray76",
"*X c #C3C3C3",
"=X c gray77",
"-X c #C5C5C5",
";X c #C6C6C6",
":X c gray78",
">X c #C8C8C8",
",X c gray79",
"<X c #CACACA",
"1X c #CBCBCB",
"2X c gray80",
"3X c #CDCDCD",
"4X c #CECECE",
"5X c gray81",
"6X c #D0D0D0",
"7X c gray82",
"8X c #D2D2D2",
"9X c LightGray",
"0X c gray83",
"qX c #D5D5D5",
"wX c gray84",
"eX c #D7D7D7",
"rX c #D8D8D8",
"tX c gray85",
"yX c #DADADA",
"uX c gray86",
"iX c gainsboro",
"pX c #DDDDDD",
"aX c gray87",
"sX c #DFDFDF",
"dX c gray88",
"fX c #E1E1E1",
"gX c #E2E2E2",
"hX c gray89",
"jX c #E4E4E4",
"kX c gray90",
"lX c #E6E6E6",
"zX c #E7E7E7",
"xX c gray91",
"cX c #E9E9E9",
"vX c #EAEAEA",
"bX c gray92",
"nX c #ECECEC",
"mX c gray93",
"MX c #EEEEEE",
"NX c #EFEFEF",
"BX c gray94",
"VX c #F1F1F1",
"CX c gray95",
"ZX c #F3F3F3",
"AX c #F4F4F4",
"SX c gray96",
"DX c #F6F6F6",
"FX c gray97",
"GX c #F8F8F8",
"HX c #F9F9F9",
"JX c gray98",
"KX c #FBFBFB",
"LX c gray99",
"PX c #FDFDFD",
"IX c #FEFEFE",
"UX c white",
/* pixels */
"_ / ] / ] _ ' / | / ) { _ ( ' ` _ ) ! _ [ ` ^ [ ` / ' _ { ^ ) / ' ] ` ` ( ) ( ) ` ^ [ ( ] ^ [ / ) / / ) ` _ _ _ _ ` ! } ) ' ) ' ",
"5X3.8.5.%.3.x.k.z.b.z.N.I.A.z.B.Z.D.N.S.z.C.m.Z.k.k.c.j.c.x.b.c.d.x.v.a.7.2.2.2.2.,.8.1.6.2.8.>.<.7.8.3.>.<.1.1.8.-.4.1.-.2.1.B ",
"9X2.$.2.(.R.4.<.d.z.M.M.b.N.Z.B.A.v.Z.F.K.N.S.n.G.n.z.b.C.N.n.b.b.z.m.v.B.l.x.z.b.l.i.c.g.m.s.q.6.:.&.3.6.4.<.3.:.5.~.Q.8.-.0.b ",
"3X-.5.!.PX1X>.( 7.w.h.d.0.s.B.m.k.F.z.A.h.S.D.b.m.G.G.V.c.C.Z.Z.g.D.b.Z.a.F.v.v.j.m.N.n.f.n.b.g.k.c.z.c.j.c.z.x.l.(.BX3X>.` 7.M ",
"9X..:.Q.>Xu.] [ :.3.2.7.i.t.u.N.b.M.s.c.S.c.D.V.S.A.m.G.B.Z.m.Z.H.V.v.M.C.Z.n.x.H.h.c.n.S.g.x.c.m.z.s.b.x.v.g.k.b.Y.,Xw.[ _ k.M ",
"2X-.| :.9./ _ ,.3.2.1.1.1.1.9.d.1.g.3.m.i.N.k.A.x.Z.N.H.b.G.A.L.V.S.H.B.V.N.S.C.M.D.n.J.g.D.M.A.z.G.S.V.d.m.v.v.j.x.4.-./ 7.9.M ",
"7X-.&.@.O.>.6.4.4.2.6.:.} $.6.1.Q w.s.3.{ k.j.v.W z.V.u. .j.B.V.! D.F.M.| C.C.H._ F.A.b.) V.N.m.T c.H.r.| a.M.b.K.v.v.j.Z.d.g.S ",
"7X| *.-.O.:.@.2.,.8.3.:.4.6.1.1.<.>.8.z.=.M.2.v.l.V.j.M.a.S.m.V.z.Z.G.C.N.D.F.C.S.V.Z.H.Z.C.Z.A.S.G.N.J.M.D.m.C.z.Z.l.F.l.H.h.B ",
"6X+.%.:.o.#.#.*.%.,.<.) Y ~ E Q ^ Q R R W ! Q W ( Y E Y _ W ! E W T ( Y Q Q E E R R W Q Q W E E E R Q U ..aXL.C.C.D.Z.c.m.c.C.M ",
"7Xo. .@.=.-.@.$.$.=.*.Y M D N b M M V F I E W E Y E ! ~ Y L T ( E R Y Y Y W Q R ~ E E ! Q T T W Y ( Q ( F.ZXB.D.D.F.V.L.F.D.Z.C ",
"4XX.{ -.c.f.,.$.@.#.*.! K %.<.>.3.1.,.<.3.5.4.3.4.6.h.e.g.7.h.z.l.B.x.C.k.n.Z.b.A.B.m.M.V.A.D.G.D.F.G.V.7XBXb.G.A.b.).Q.2.>.F.N ",
"W.^ #.l.&XU.*.I &.@.$.U M @.<.-.4.1.;.*.=.:.,.<.3.3.:.5.5.y.i.h.5.a.7.g.7.s.M.x.x.m.M.v.v.m.N.m.A.b.A.C.6XzXC.G.C.~.KX-X1.E J.m ",
"^.) _ &.V.y.X.^ %.@.-.Q N %.-.+.,.,.,.<.<.1.3.4.3.2.j.k./.).>X>X,X1XOX5X+X).J.k.j.x.b.b.b.b.b.b.B.C.B.Z.5XMXS.S.S./.:Xu.+./ B.Z ",
"R.` / ) %._ E Q @.o.*.Q M &.*.$.%.;.<.1.>.;.;.>.k.Y.&XtXtXuX0X9X,X@X.X<XqX5X*XOXR.B.f.d.l.c.x.z.J.H.V.Q.`.zXG.N.S.b.7.' [ 4.V.C ",
"T.[ ) / ^ E ~ ( O.X.$.R b #.@.=.X.@.&.&.-.5.f.M.;X2XyX*X|.M.f.6.&.>.q.O.6.v.~.>X*XXXR.N.x.b.b.l.Z.g.>.U.N.zXH.M.V.C.A.P.N.F.L.m ",
"T.' / _ / ' X.{ ` ] @.W N $.X.&.%.%.#.#.<.l.`.3X4X|.C.4.$.o.#.O./ g.].&.^ ! | 2.F.OX=XI.s.f.c.z.b.x._ H.Z.MXl.C.v.V.V.m.G.V.Z.N ",
"~.~ ) ( ` ) ] } } o.} W B $.=.$.O.=.$.<.Q.m.n.:Xl.&. .*.;.1.2.@.` v.,X&.Y @.:.%...&.B.|.Y.v.v.b.j.*./ h.h.ZXs.b.z.z.F.z.N.m.V.B ",
"Q._ _ / ' / _ ` { ....W N @.=.$.*.&.2.L.-X!.B.p.*.&.;.>.>.>.-.o.` u.|.o.L _ o.&.%.' O.6.6.5.0.9.q.e.u.L.D.zXv.n.C.g.x.v.v.Z.z.C ",
"C.( ` | -.#.+.{ ' } X.W N O.%.+.X.8.F. X{.L.,.^ o.,.2.;.>.3.>.$.) ,.L.{ W ] { +.$.@.,.r.p.s.s.u.i.h.s.K.K.vXv.a.a.4.[.L.3.-.b.B ",
"V.' ' &.p.8.#.U _ ' ..R V ....| %.s.h..XK.t.q.#.' | $.=.-.1.:.o.#.h.oX,.| *.:.6.5.t.d.p.u.i.d.f.c.p.5.U.K.cXr.n.b.!.DX3XO.{ c.V ",
"S.` ^  .q.1.] M _ ( [ L A } [ O.M.a.M.@Xa.*.d.C.` Y [ ;.%.=.1.&...b.-X,.O.e.s.j.d.z.h.u.p.f.t.3.O.u.v.l.x.NXi.c.c.!.6X0.#.^ n.n ",
"V.( ( Q ) T I Z _ ( ` S A ]  .e.].T.%XG.%.*.o.f.$.W ) *.%.*.<.&.o.c.#X>.;.g.d.u.t.a.i.y.h.k.2./ $.+.q.8.`.zX0.z.8.g.0.] } 2.b.m ",
"A.) } W H V H I ` _ _ M Z ` =.R..X4XT.<.5.1.O.! } ` _  .%.&.@.X.*.i./.>.5.f.p.h.j.l.f.y.i.f.8.} 7.>.;.:.6XSXi.9.h.x.z.v.s.c.m.m ",
"D.T ) ~ ^ / _ ( ` ' _ v V _ 5.:X#X;XV.3.y.-.<.) ^ &.X.^ ..&.-.q.2.$.w.I | *.o.<.6.e.p.i.a.j.t.#.&.i.,.q.4XvX7.-.2.k.2.n.3.c.<.C ",
"C.Y _ ^ _ ' ' / ` _ _ C N } p.6.&X/.u.0.r.3.3.+.{ ..o.' Q 5.p.r.9. .3.O.` #.&...~ ( s.y.y.d.9.q.;.4.e.5.0XcX4.4.2.9.1.4.v.5.j.A ",
"A.R / ^ ) ) ] _ ) ` ( V V | >.u.rXJ.0.9.w.q.0.8.e.q.6.| m L +.y.=.$.9.<.6.>.$.y.&._ t.p.p.d.q.t.4.$.p.e.&XvX2.2.3.5.&.3.6.d.6.m ",
"A.E !  .%.o..._ ) ] ^ M C %...G.1Xf.y.g.k.M.l.b.x.u.q.2.! U Q %.q. .:.%.&.1.8.r.<.W 4.f.d.a.7.5.i...g.f.).bX1.2.<.3.{.I.2.1.6.M ",
"C.E W -.w.1.o.R ` { ( m B 9.%.@XXXz.F.H.B.F.z.x.j.y.t.i.:.o.) X.) | u.2.O.&.1.1.q.) 3.d.y.a.8.,.f.+.w.f.Y.xX2.2.6.Y.HX<X#.X.>.S ",
"Z.Q T #.<.+.! Z ) ] ` B m d.8.>X}.H.E.K.m.B.k.k.g.f.a.p.5.>.[ { *.w.0.$.i.e.@.:.;.' 6.d.u.h.7.$.q.&. .7.G.sX1.<.<./.4X0.+.] :.V ",
"S.( U ~ E J B N ^ ` ] Z m d.p. X/.J.F.A.M.n.v.v.j.j.i.r.9.6.[ ) b.O.W W &.>.*.O.%.+.0.f.a.s.%._ -.=.Y &.V.eX,.;.#.b.<.#._ 5.-.B ",
"Z._ W Y S S V I ( ` _ Z N e.k.T.~.L.D.F.C.m.m.z.k.k.u.r.9.5.#.3.9.I 8.g.~ ~ u.1.2.$.@.:.2.,.) { <.1./ ;.B.tX1.;.2.4.,.8.:.3.6.M ",
"V.` ( ~ U ~ Y ] ] ' ^ B V 7.b.K.!.U.L.J.V.V.A.v.l.h.i.g.s.w.<.j.4.] M.Z.( Q 9.| T N j J { | R *.y.w.=.9.Z.dX4.:.%.=.,.:.-.,.2.B ",
"v.( / ! E R R ~ ` ) _ M m x.k.Q.`.P.D.C.z.B.l.j.j.d.y.q.w.4.#.%.0.~ | &.L O.1.[ { E $.9.6.y. .R @.#.I _ B.tX>.;.<.<.4.=.=.6.3.Z ",
"m._ ) ) ( ~ R E ) ( ' V V l.b.T.|.U.H.D.f.f.y.s.j.f.a.f.7.4.2.G p.u.{ O.+.f.*.o.%.' 2.g.u.d.:.| 3.#.' %.G.tX:.;.6.,.2.>.<.>.#.m ",
"c.) ] { { ` ! Q ~ / ] Z Z u.n.D. XT.A.n.w.e.q.y.f.h.j.t.a.a.$.] 1.3.7.e.w.&.O.%.<.[ 2.k.s.g.9.:.w.O.2.u.R.rX%.$.$.8./.Q.8.:.7.C ",
"l./ } $.;.#.) Y W ~ _ V B 1.z.c.W.U.m.f.q.u.9.6.f.x.l.i.h.>.! 5.O.E Q 7...| *.1.6.` 1.d.i.f.q.4.e.@.h.z.I.8X@.+.O.W.GX2X%.` 1.N ",
"v./ [ #.>.#.E C R Q / B M #.g.k.V.I.M.h.i.u.1.,.e.s.s.N.:.S | :.=.$.{ 1.,.5.3.1.3.[ e.j.a.h.q.9.q.1.C.k.A.3X$.%.$.~.;Xj.] { @.V ",
"b.) ) ^ E L Z C T Q ! C N ..i.x.N.R.Z.c.u.7.,.8.r.p.g.d.! B =.>.8.;.*.*.8.:.8.r.+. .f.x.h.k.u.r.1.p.F.h.S.7X%.#.o.2.1.] ..<.>.D ",
"x._ ) T S B S T E ! W Z M ] 4.j.M.Y.F.N.y.q.e.i.k.z.p.*._ ' *.0.t...~ &. .*.@.*.*.2.j.k.l.h.s.5.>.m.m.t.F.0X#.+.$. .=.=.O.$.*.m ",
"x.) ] [ ' ) ~ / W ~ E A n ^ $.p.f.F.K.G.h.l.x.t.i.d.#.O.<.>.w.p.6.,.8.:.1.q.u.r.f.b.x.g.c.f.a.#.6.G.p.:.M.6X#.*.&.#.*.@.%.*.@.M ",
"z._ ! ] ' ! _ ! E R Q C V ~ | :.d.x.n.G.D.x.k.a.w.@.#.-.-.y.q.f.q.2.G.>.6.z.x.v.h.z.l.h.x.c.w.+.v.d.>.;.C./.#.*.&.&.#.+.%.+.#.S ",
"b.{ ^ ' { ( ` / W R W B M R / ..,.k.N.M.M.B.v.8.X.*.o.>.9.u.a.j.w.>.B.,.e.x.f.f.k.l.f.p.h.z.r.&.<.7.5.3.n.E.o.&.+.@.&.%.&.&.&.b ",
"z.] ~ { *.O.' W Q E W B M Y E ( +.i.b.b.M.C.g.$.v.n.o.*.t.r.g.f.y.,.N.5.p.M.c.b.k.b.n.z.z.b.z.s.t.s.d.q.l.W.+.$...q.H.C.4.&.<.Z ",
"v...{ =.u.7. .E ^ Q Q V V W Q / | <.u.f.d.s.s.a.d.0./ ;.k.k.n.h.8.*.v.=.+.4.e.u.i.d.k.c.c.z.x.b.v.v.x.e.s.Q.&.&.*.V.>X/.$.W @.V ",
"k.{ ]  .;.o.U A ) ~ Q N B ! ~ ^ ^ | ;.<.<.0.b.E.1.$.:.s.c.l.f.6.=.$.N.=.T X.9.t.8.2.7.g.m.b.c.n.z.b.v.s.d.E.$.#.&.j.'.K.&.] *.n ",
"n.O. ./ W L Z D ` / Q m m W W W ! ( [ ..4.l.j.r.0.4.l.x.h.c.l.7.O.&.S.5.^ *.f.z.d.r.r.f.j.s.i.s.a.a.9.r.g.W.$.O.O.$.1.*.[ o.>.m ",
"c.} { R D A S L ` ) ~ M m E E R ^ ~ ) ' 1.g.4.` 8.r.z.h.l.v.v.0.&.-.b.2.} <.i.g.N.m.h.9.=.+.O.+.,.-._ :.s.T.%.%.*.$.$.@.#.&.*.n ",
"v.[ X.' ~ ) ) _ _ ) / B B ! ! Q Y ! [ ^ ^ O.;.8.5.g.j.j.B.k.k.q.8.4.l.5.2.d.z.B.x.x.e.+.` | o.} -.:.` 5.h.K.@.=.@.%.%.$.=.#.+.V ",
"v.| ....' / ` ' ` / _ N V Y W T ^ R E ) ` ( _ | 2.0.a.h.g.f.h.l.f.p.y.p.j.z.g.p.e.1.+.[ [ |  . .>.7.:.3.g.V.#.*.$.O.$.#.*.%.+.Z ",
"x.[ { { ` / _ ) ' _ ] C S W ^ ! ^ Q ! _ ` ) ` { } @.>.5.9.e.u.a.s.p.i.p.i.w.2.*. .[ ` ` [ | } { | @.o.>.x.L.$.O.&.&.:...+.&.&.v ",
"M... .+.*.&.+.[ ) ( ` M V U R T R R E Q ~ ^ / / ( _ ] [ ' _ ) ) ) ) _ _ _ ( ~ W / ( _ [ |  .} ] [ { { #.d.L.#.+. .;.m.l.9...@.A ",
"z.{  .-.9.4.X.T / / ) M A E ! ~ E ! ! Q ! ) ` _ ( ( ) _ _ _ _ _ _ ` ` _ ) _ ' [ ` ` ' ] [ { { { X. ...X.9.C...+...v.&XV.=._ &.N ",
"g.} X.%.,.+.R M ` ' ` m A R T R R Q Q T E ( ' _ ] ' ` ` ` ` _ ) / _ ] ' ) / / ( ^ ^ ^ / / _ ] { [ [  .| 2.b.[  .%.f.W.8._ Q &.m ",
"b.$...^ E J Z C ` ` ( n F ! E E E Q Q R E / _ ) ( ( ( ( ) _ ` ` ) _ _ _ ) ) _ ' _ _ ` ' ' ] [ { ] [ { { >.c. ...o...1.X.] / @.A ",
"v.#.[ P F A F I / ( / V ~ $.#.%.|  . .| | ..X...@.@.@.@.@.@.@.#.*.%.@.+.@.$.%.%.%.%.%.%.%.$.#.@.#.,.<.>.7.x.O.X. .O.%.~ ) +.*.m ",
"h.@.O.{  .{ ) ( ` ' ) Z ( *.%.&.#.$.%.&.%.#.+.+.$.%.&.%.#.#.#.$.#.$.*.,.4.5.2.>.3.2.1.1.2.3.3.2.2.h.b.c.h.c...] X.X.+.| @.=.#.M ",
"c.#.[ } .. ./ ` ) ( [ ] ! ) ' Y P ~ ^ U P Q ~ Y ^  ._ ' R ..` ( ~ | _ [ R } ) ( ~ | _ [ R } ) ( / X.]  .^ +.| | [ } o.X.[ %.$.C ",
"x.-.+.{ ..} ) { { ) ( W L ! [ ^ m P ! I D H T Q b ! ( ! Z Q ^ ` c Q ) ^ C W / } c Q ) ^ C W / } n / ] _ D ^ ` ..@.} ....} @.@.m ",
"h.%.X.] :.$._ ( [ ` ` / E ) } ) U Q / Q R E ! ~ L ] [ [ Y _ _ ] ( [ ) { Q ' / ` ( [ ) { Q ' / ` ! ' ( } /  .{ ..[ | 7.4.#.| O.M ",
"x.%.#.;.N.s.o.E / / ' ' ( ` ' ! ) Q Y Y W Q R U ! Q R ' ) [ ( ` } ' ~ { _ ' ~ ) } ' ~ { _ ' ~ ) } ' ^ | ' { ) ] [ 3.H.x.$.W { N ",
"c.$.+.&.h.>.L n ` _ ' ` ) ' [ _ ) ~ E E E E Q ^ Q R T ` _ ) ~ ` ~ ` ) ` ~ ` ) ` ~ ` ) ` ~ ` ) ` ^ ` _ ] ( [ ] { ..4.N.q.] Y | Z ",
"c.*...^ ' K N G _ _ _ ) ( _ ` ` ` ) ^ W T T W ^ Q ^ ^ ) ( ` ) ) ` ' _ ` ) _ ( ) ` ' _ ` ) _ ( ) ) _ ) ' ' { [ { _ ' O./ W (  .m ",
"h.:.+.Y C n M L ( ) _ ` ' _ ) ( ` ) ! R R W E Y T W W ! ( ] [ ' ^ ^ ( ` ) ^ ( [ ^ ^ ( ` ) ^ ( [ ) ( _ ' ) ^ / ' } _ / ! ( { } Z ",
"-.o.=.#.o.*.$.%.%.%.#.#.#.#.@.$.#.%.$.@.#.*.*.#.$.#.$.&.#.o.@.*.#.*.&.+.@.*.*.O.#.*.&.+.@.*.*.O.@.&.%.O.@.*.*.+.&.&.$.%.+.@.:.#."
};
