/* XPM */
static char *_9094_099928475971bae43835ef3d790df3f166316930139182be3fd9a2727d64ac12[] = {
/* columns rows colors chars-per-pixel */
"64 64 256 2 ",
"   c black",
".  c #010101",
"X  c #020202",
"o  c gray1",
"O  c #040404",
"+  c gray2",
"@  c #060606",
"#  c #070707",
"$  c gray3",
"%  c #090909",
"&  c gray4",
"*  c #0B0B0B",
"=  c #0C0C0C",
"-  c gray5",
";  c #0E0E0E",
":  c gray6",
">  c #101010",
",  c #111111",
"<  c gray7",
"1  c #131313",
"2  c gray8",
"3  c #151515",
"4  c #161616",
"5  c gray9",
"6  c #181818",
"7  c #191919",
"8  c gray10",
"9  c #1B1B1B",
"0  c gray11",
"q  c #1D1D1D",
"w  c #1E1E1E",
"e  c gray12",
"r  c #202020",
"t  c gray13",
"y  c #222222",
"u  c #232323",
"i  c gray14",
"p  c #252525",
"a  c gray15",
"s  c #272727",
"d  c #282828",
"f  c gray16",
"g  c #2A2A2A",
"h  c gray17",
"j  c #2C2C2C",
"k  c #2D2D2D",
"l  c gray18",
"z  c #2F2F2F",
"x  c gray19",
"c  c #313131",
"v  c #323232",
"b  c gray20",
"n  c #343434",
"m  c #353535",
"M  c gray21",
"N  c #373737",
"B  c gray22",
"V  c #393939",
"C  c #3A3A3A",
"Z  c gray23",
"A  c #3C3C3C",
"S  c gray24",
"D  c #3E3E3E",
"F  c #3F3F3F",
"G  c gray25",
"H  c #414141",
"J  c gray26",
"K  c #434343",
"L  c #444444",
"P  c gray27",
"I  c #464646",
"U  c gray28",
"Y  c #484848",
"T  c #494949",
"R  c gray29",
"E  c #4B4B4B",
"W  c #4C4C4C",
"Q  c gray30",
"!  c #4E4E4E",
"~  c gray31",
"^  c #505050",
"/  c #515151",
"(  c gray32",
")  c #535353",
"_  c gray33",
"`  c #555555",
"'  c #565656",
"]  c gray34",
"[  c #585858",
"{  c gray35",
"}  c #5A5A5A",
"|  c #5B5B5B",
" . c gray36",
".. c #5D5D5D",
"X. c gray37",
"o. c #5F5F5F",
"O. c #606060",
"+. c gray38",
"@. c #626262",
"#. c gray39",
"$. c #646464",
"%. c #656565",
"&. c gray40",
"*. c #676767",
"=. c #686868",
"-. c DimGray",
";. c #6A6A6A",
":. c gray42",
">. c #6C6C6C",
",. c #6D6D6D",
"<. c gray43",
"1. c #6F6F6F",
"2. c gray44",
"3. c #717171",
"4. c #727272",
"5. c gray45",
"6. c #747474",
"7. c gray46",
"8. c #767676",
"9. c #777777",
"0. c gray47",
"q. c #797979",
"w. c gray48",
"e. c #7B7B7B",
"r. c #7C7C7C",
"t. c gray49",
"y. c #7E7E7E",
"u. c gray50",
"i. c #808080",
"p. c #818181",
"a. c gray51",
"s. c #838383",
"d. c #848484",
"f. c gray52",
"g. c #868686",
"h. c gray53",
"j. c #888888",
"k. c #898989",
"l. c gray54",
"z. c #8B8B8B",
"x. c gray55",
"c. c #8D8D8D",
"v. c #8E8E8E",
"b. c gray56",
"n. c #909090",
"m. c gray57",
"M. c #929292",
"N. c #939393",
"B. c gray58",
"V. c #959595",
"C. c gray59",
"Z. c #979797",
"A. c #989898",
"S. c gray60",
"D. c #9A9A9A",
"F. c #9B9B9B",
"G. c gray61",
"H. c #9D9D9D",
"J. c gray62",
"K. c #9F9F9F",
"L. c #A0A0A0",
"P. c gray63",
"I. c #A2A2A2",
"U. c gray64",
"Y. c #A4A4A4",
"T. c #A5A5A5",
"R. c gray65",
"E. c #A7A7A7",
"W. c gray66",
"Q. c #A9A9A9",
"!. c #AAAAAA",
"~. c gray67",
"^. c #ACACAC",
"/. c gray68",
"(. c #AEAEAE",
"). c #AFAFAF",
"_. c gray69",
"`. c #B1B1B1",
"'. c #B2B2B2",
"]. c gray70",
"[. c #B4B4B4",
"{. c gray71",
"}. c #B6B6B6",
"|. c #B7B7B7",
" X c gray72",
".X c #B9B9B9",
"XX c gray73",
"oX c #BBBBBB",
"OX c #BCBCBC",
"+X c gray74",
"@X c gray",
"#X c gray75",
"$X c #C0C0C0",
"%X c #C1C1C1",
"&X c gray76",
"*X c #C3C3C3",
"=X c gray77",
"-X c #C5C5C5",
";X c #C6C6C6",
":X c gray78",
">X c #C8C8C8",
",X c gray79",
"<X c #CACACA",
"1X c #CBCBCB",
"2X c gray80",
"3X c #CDCDCD",
"4X c #CECECE",
"5X c gray81",
"6X c #D0D0D0",
"7X c gray82",
"8X c #D2D2D2",
"9X c LightGray",
"0X c gray83",
"qX c #D5D5D5",
"wX c gray84",
"eX c #D7D7D7",
"rX c #D8D8D8",
"tX c gray85",
"yX c #DADADA",
"uX c gray86",
"iX c gainsboro",
"pX c #DDDDDD",
"aX c gray87",
"sX c #DFDFDF",
"dX c gray88",
"fX c #E1E1E1",
"gX c #E2E2E2",
"hX c gray89",
"jX c #E4E4E4",
"kX c gray90",
"lX c #E6E6E6",
"zX c #E7E7E7",
"xX c gray91",
"cX c #E9E9E9",
"vX c #EAEAEA",
"bX c gray92",
"nX c #ECECEC",
"mX c gray93",
"MX c #EEEEEE",
"NX c #EFEFEF",
"BX c gray94",
"VX c #F1F1F1",
"CX c gray95",
"ZX c #F3F3F3",
"AX c #F4F4F4",
"SX c gray96",
"DX c #F6F6F6",
"FX c gray97",
"GX c #F8F8F8",
"HX c #F9F9F9",
"JX c gray98",
"KX c #FBFBFB",
"LX c gray99",
"PX c #FDFDFD",
"IX c #FEFEFE",
"UX c white",
/* pixels */
"_ / ] / ] _ ' / | / ) { _ ( ' ` _ ) ! _ [ ` ^ [ ` / ' _ { ^ ) / ' ] ` ` ( ) ( ) ` ^ [ ( ] ^ [ / ) / / ) ` _ _ _ _ ` ! } ) ' ) ' ",
"5X3.8.5.%.3.x.k.z.b.z.N.I.A.z.B.Z.D.N.S.z.C.m.Z.k.k.c.j.c.x.b.c.d.x.v.a.7.2.2.2.2.,.8.1.6.2.8.>.<.7.8.3.>.<.1.1.8.-.4.1.-.2.1.B ",
"9X2.$.2.(.R.4.<.d.z.M.M.b.N.Z.B.A.v.Z.F.K.N.S.n.G.n.z.b.C.N.n.b.b.z.m.v.B.l.x.z.b.l.i.c.g.m.s.q.6.:.&.3.6.4.<.3.:.5.~.Q.8.-.0.b ",
"3X-.5.!.PX1X>.( 7.w.h.d.0.s.B.m.k.F.z.A.h.S.D.b.m.G.G.V.c.C.Z.Z.g.D.b.Z.a.F.v.v.j.m.N.n.f.n.b.g.k.c.z.c.j.c.z.x.l.(.BX3X>.` 7.M ",
"9X..:.Q.>Xu.] [ :.3.2.7.i.t.u.N.b.M.s.c.S.c.D.V.S.A.m.G.B.Z.m.Z.H.V.v.M.C.Z.n.x.H.h.c.n.S.g.x.c.m.z.s.b.x.v.g.k.b.Y.,Xw.[ _ k.M ",
"2X-.| :.9./ _ ,.3.2.1.1.1.1.9.d.1.g.3.m.i.N.k.A.x.Z.N.H.b.G.A.L.V.S.H.B.V.N.S.C.M.D.n.J.g.D.M.A.z.G.S.V.d.m.v.v.j.x.4.-./ 7.9.M ",
"7X-.&.@.O.>.6.4.4.2.6.:.} $.6.1.Q w.s.3.{ k.j.v.W z.V.u. .j.B.V.! D.F.M.| C.C.H._ F.A.b.) V.N.m.T c.H.r.| a.M.b.K.v.v.j.Z.d.g.S ",
"7X| *.-.O.:.@.2.,.8.3.:.4.6.1.1.<.>.8.z.=.M.2.v.l.V.j.M.a.S.m.V.z.Z.G.C.N.D.F.C.S.V.Z.H.Z.C.Z.A.S.G.N.J.M.D.m.C.z.Z.l.F.l.H.h.B ",
"6X+.%.:.o.#.#.*.%.,.<.) Y ~ E Q / ! E E W Q Q W ! E Q W R ! ^ Y E T T T Q R R W ( T ! ~ R W ! Q T ^ U T [ vXA.C.C.D.Z.c.m.c.C.M ",
"7Xo. .@.=.-.@.$.$.=.*.Y M D N b N m M D Y ! E U R R ^ ~ E R R ( ~ Q T ) W ^ R E ! U E ~ ~ ^ R R ^ ~ / _ S.CXA.D.D.F.V.L.F.D.Z.C ",
"4XX.{ -.c.f.,.$.@.#.*.! K %.<.>.4.5.5.4.3.2.3.4.4.9.t.w.t.i.y.n.x.j.M.d.l.l.Z.l.C.m.b.n.C.K.Z.F.Z.M.Z.m.8XBXB.A.A.b.).Q.2.>.F.N ",
"W.^ #.l.&XU.*.I &.@.$.U M @.<.-.4.>.&.%.-.<.3.4.,.5.8.2.e.a.w.g.4.t.y.s.5.n.M.j.v.Z.V.n.c.B.c.C.G.N.Z.H.2XmXS.B.C.~.KX-X1.E J.m ",
"^.) _ &.V.y.X.^ %.@.-.Q N %.-.+.4.1.:.;.>.<.<.<.2.1.<.;.2.6.<.7.z.u.v.j.l.e.s.7.,.d.j.n.c.M.c.N.V.M.C.D.4XmXK.D.S./.:Xu.+./ B.Z ",
"R.` / ) %._ E Q @.o.*.Q M &.*.$.+.*.<.3.2.,.>.>.<.;.>.4.5.e.g.h.n.y.8.k.<.X.(  .^ ] / q.z.N.b.l.z.m.C.b.tXcXV.D.S.b.7.' [ 4.V.C ",
"T.[ ) / ^ E ~ ( O.X.$.R b #.@.=.@.@.$.-.<.1.>.=.:.q.m.Q./.OX-XL.@.:.r.4.$.~ { +.@.( D u.B.m.n.l.v.n.z.x.1XMXn.N.V.C.A.P.N.F.L.m ",
"T.' / _ / ' X.{ ` ] @.W N $.X.&.&.%.#.@.#.-.3.0.m.`.9XkX0X2X^.R a -.x.5.) { O.o.+.( P N.S.i.j.b.V.S.b.F.T.nXm.C.v.V.V.m.G.V.Z.N ",
"~.~ ) ( ` ) ] } ..}  .! Z #.#.-.-.O.$.&.+.1.m.^.1XlX@Xr.0.E.a.M ) c.8._ #.>.-.O.O.Q G S.F.o.4.v.M.n.,.Z.H.MXx.v.z.z.F.z.N.m.V.B ",
"Q._ _ / ' / _ `  .}  .T N $.@.o.@.:.%.&.t.n./.uX+Xn. .W 9.!.k.*.l.l.] P :.a.7.( +./ Z u.k.' X.a.y.w.) 1.f.BXn.z.C.g.x.v.v.Z.z.C ",
"C.( ` | -.#.+.{ { ] ..R M +.+...| =.#.p. X/.c.D.>.T E 9.{.4XG.d.A.0.K V [ q.q.) { ( K r.j.` L ..0...W 1.r.lXv.c.a.4.[.L.3.-.b.B ",
"V.' ' &.p.8.#.U ' /  .~ Z | X.@. .-.y._.,XC...^ ..} 1.K.7XjX%XD.e.$.~ Y I o.q.=.) ) _ C.K.&.Y W [ +.(  .f.cX8.j.b.!.DX3XO.{ c.V ",
"S.` ^  .q.1.] M ` ~ [ T S { { X.$.w.Y.}.s.W ! } $.%.q.].qXyX7XC.-.} +.*./ _ 2.4.[ ] Q n.G.-.[ ..#.) } :.j.MXh.c.c.!.6X0.#.^ n.n ",
"V.( ( Q ) T I Z ` ( ( C C } ' [ 2.d.D.x.Q m | =.O.&.V.2XXXW.=XJ.@.) +.2.{ U ( ..` | Q j.Z.&.' o...[ {  .s.fX0.b.8.g.0.] } 2.b.m ",
"A.) } W H V H I ) ` ( b B ' [ *.m.S.w.+.}  .;.&.&.<.T.A.~ o.!.V.{ ` ..#.) S C U ( } ] j.m.;.` [ { $.9.-.a.nXg.6.h.x.z.v.s.c.m.m ",
"D.T ) ~ ^ / _ ( / ' ` M V ^  .i.$X&X4.I o.@.| +.@.e.-Xx.S u..X7.{ #.@.[ / U S K  .^ I +.O.} o.-.[ X.1.y.(.VX<.,.2.k.2.n.3.c.<.C ",
"C.Y _ ^ _ ' ' / / ' ) C B ) ;.XXbXC._ { +.{ @.&.%.M.:X].Q.=X{.&.[ X.+.| _ Q I G E O._ C a Q ` ..{ ) +.y.6XnX3.2.2.9.1.4.v.5.j.A ",
"A.R / ^ ) ) ] _ ) ` / B N  .6.|.XX5.W } X.} #.#...B.2X6XtXuX/. .} X.O...] ~ T L F R W E v ~ Y G } | } 4.=XBX2.1.3.5.&.3.6.d.6.m ",
"A.E !  .%.o..._ ` ` ( N N @.7.E.B.X.^ ..{ { X. .>.E.7XeXfX3XC.|  .X.o.o.} ( E Y V k C o.R | L c  .*.` *.).VX1.2.<.3.{.I.2.1.6.M ",
"C.E W -.w.1.o.R ` ' _ B V @.,.Z.j.O.{  .] } } } 7.|.7X2X-XE.u. .o.X.o.o. ._ Q T A 8 e { (  .D v ..>.{ :.H.bX,.5.6.Y.HX<X#.X.>.S ",
"Z.Q T #.<.+.! Z ) ' ) N Z &.3.S.w.O.[ ' [ ..} X.r.^.E.M.h.a.t.&.O.o.X.X. .' ! T R j e T !  .L I ] =.#.w.C.gX:.2.<./.4X0.+.] :.V ",
"S.( U ~ E J B N ( _ ( m C 6.f.I.*.{ / / ] } ] } p.A.8.#.&.y.j.#.o.O.X. . .} ) R ! K k Z / -.'  .( O.%.r.C.pX:.;.#.b.<.#._ 5.-.B ",
"Z._ W Y S S V I ) ( ' M M p.V.A.X.' ^ ` _ ( ' _ 9.l.*.=.0.m.v.( ..O.o.| ..+.} Q P H g x | 5.[ _ ` } { &.M.uX2.=.2.4.,.8.:.3.6.M ",
"V.` ( ~ U ~ Y ] ` / | V v h.D.a.| ` ( } ) ~  .] 8.a.` ` =.k.b.} | +.O.| X.&.o./ W D a b 1.r.( H  .{ E E l.iX7.:.%.=.,.:.-.,.2.B ",
"v.( / ! E R R ~ ' / [ N n p.I.i./ ) / ( _ ` ' ) w.8.f # Q n.k.' @.X.X.....+. .Q U S C ` q.9.| ! ( ! U ` 5.uX<.%.<.<.4.=.=.6.3.Z ",
"m._ ) ) ( ~ R E ( ^ [ M M d.U.i.) ) / ( _ ` ` _ 7.>.p & T j.s.( @.O.X.{ ' } ] T J ~ [ ..>.,.| ` Q Y A E 4.uX1.-.6.,.2.>.<.>.#.m ",
"c.) ] { { ` ! Q Q ~ ] M B h.T.s.] ) ) _ _ _ _ _ 6.0.! A ..s.s. ...O.o.] _ } ] T T W T L  .,.| ~ ) ^ S T 8.eX=.&.$.8./.Q.8.:.7.C ",
"l./ } $.;.#.) Y R ! ` m C h.E.v.o._ _ ` ) _ ) ` &.q.<.&.,.e.t.O.[  .| ` { +...! ~ D j g ~ >.| ^ } X.W ' p.0X@.#.O.W.GX2X%.` 1.N ",
"v./ [ #.>.#.E C E Q ( n Z p.T.F.;.' ` ` ) _ / ` X.3.3.6.q.p.u...[ { ) ^ } $.o.( Y J B M Q ..' ' ) #.| *.b.0X#.*.$.~.;Xj.] { @.V ",
"b.) ) ^ E L Z C W E ~ M V 6.F.T.8.[ ' ` ) ` / ` @.w.a.l.b.M.h...| { ^ Q ] X.[ ~ P Y K T [ ' T L W @.%.7.Z.6X@.&.o.2.1.] ..<.>.D ",
"x._ ) T S B S T ! Y W B N $.c.W.p.| ' ` ( ' ^ _ o.s.M.Z.Z.V.g.| { } ' '  .{ ~ R R S h Y %.] K m W @.-.r.F.4X@.#.$. .=.=.O.$.*.m ",
"x.) ] [ ' ) ~ / ~ I E C m [ a.E.j...' _ ( ] ^ _ ..d.n.n.M.V.l.+.) | o.$.&.{ R I E l 2 K -.) I J Q O.-.y.J.7X=.&.&.#.*.@.%.*.@.M ",
"z._ ! ] ' ! _ ! W ! E N V ~ ,.J.P.*.` ] ^ ) _ / ` 6.l.x.N.F.h.&.' ` ] ( [ | ^ ^ U a p _ ~ F J Q [ ..1.0.L.~.O.%.&.&.#.+.%.+.#.S ",
"b.{ ^ ' { ( ` / W Q E B V W @.z.(.k.&.` ` ' _ ' ] 8.k.2.$.z.D.6.( ` ( ` ..| ( E E ^ K J z x W #.} | *.>.V.W.@.&.+.@.&.%.&.&.&.b ",
"z.] ~ { *.O.' W Q W E B C T _ 2.K.W.s.[ _ ] ) / ! :.i.^ e ) b.r.} o.' {  ._ / R Q +.Q T W / X.$.{ o.>.<.M.Q.#.%...q.H.C.4.&.<.Z ",
"v...{ =.u.7. .E ~ Q E B C Y R | 9./.U.2.' ` ] Q ^ X.t.+.s P d.g.| ..' ] ] Q E ! { { U #.y.,. .) { #.1.<.z.R.#.$.*.V.>X/.$.W @.V ",
"k.{ ]  .;.o.U A ) ! E B C T Y ^ } B.(.N.#.~ { [ ] / 3.d.<.3.l.l.@.{ [ } { E D I X.~ P :.a.%.} X. .o.@.O.t.Y.$.$.&.j.'.K.&.] *.n ",
"n.O. ./ W L Z D ' / Q B V E R Q / >.N.D.3.) } +. .Q ..i.v.l.j.g.1.} } %.-.[ I _ @.W R =.t.%.| o.o.} [ ..u.~.*.#.O.$.1.*.[ o.>.m ",
"c.} { R D A S L ] ( ~ V B W W Q ! _ :.e.e.7.=.X.#.{ [ >.a.d.a.z.e.O.` $.;. .@.s.<.Q Q =.s.-.Q E o.} | $.i.!.%.#.*.$.$.@.#.&.*.n ",
"v.[ X.' ~ ) ) _ ] ) / C B Q Q Q E ) ] | s.I.p.] #.o.] O.9.t.u.c.n.3.` | _ P *.G.:.L I #.u.X.J ) o.....+.5.F.X.&.@.%.%.$.=.#.+.V ",
"v.| ....' / ` ' ` / _ N V Y W T I ! ! ^ =.h.h.3.%.0.6. .| 0.g.y.n.p.@.Q V ! t.w.~ Q A @.i.[ Y @.:.;.P  .r.N.&.@.$.O.$.#.*.%.+.Z ",
"x.[ { { ` / _ ) ' _ ] C S W ^ ! / ^ Q ~ { *.2.5.c.H.Z.u.e.d.6.( X.z.u.Y m >.B.>.~ W F *.h.*.` #.@.@.L { w.Z.*.@.&.&.:...+.&.&.v ",
"M... .+.*.&.+.[ ) ( ` M V U R T E T R ~ ! Q ` +.>.k.H.K.P.D.1.C n 3.i. .Y &.s.;.` ~ U :.k.5.+.O.>.2...*.t.A.o.}  .;.m.l.9...@.A ",
"z.{  .-.9.4.X.T / / ) M A E ! ~ Y E ! / ) _ _ _ [ #.-.:.q.l.j.q.{ 2.y.a.,.) ` |  .` ! *.w.1.@.{ ] $.+.=.0.A.O.+...v.&XV.=._ &.N ",
"g.} X.%.,.+.R M ` ' ` m A R T R E W E T W _ ] _ ) _ ` ] | o.O.o.;.1.4.q.6.O.` _ ..] / } @.o.| ` _ X.X.O.>.n.{ | %.f.W.8._ Q &.m ",
"b.$...^ E J Z C ` ` ( n F ! E E Q Q W R R Q ( ` [ ) / ` ] ` _ ' ` o.+.X.o.$.%.O. .{ ` ` ' [ } { ]  .{  .-.b. ...o...1.X.] / @.A ",
"v.#.[ P F A F I / ( / V ~ $.#.%.} | ....| { | X.$.#.@.#.%.&.%.$.#.%.-.&.O.O.#.&.#.%.#.O.+.#.#.%.o.;.;.1.4.x.} |  .O.%.~ ) +.*.m ",
"h.@.O.{  .{ ) ( ` ' ) Z ( *.%.&.&.*.%.#.#.&.&.#.#.-.-.#.O.%.*.&.&.o.*.2.4.6.4.,.<.4.5.2.4.5.<.1.2.h.v.N.g.b. .X.X.X.+.| @.=.#.M ",
"c.#.[ } .. ./ ` ) ( [ ] ! ) ' Y P ~ ^ U P Q ~ Y ^  ._ ' R ..` ( ~ | _ [ R } ) ( ~ | _ [ R } ) ( / X.]  .^ +.| | [ } o.X.[ %.$.C ",
"x.-.+.{ ..} ) { { ) ( W L ! [ ^ m P ! I D H T Q b ! ( ! Z Q ^ ` c Q ) ^ C W / } c Q ) ^ C W / } n / ] _ D ^ ` ..@.} ....} @.@.m ",
"h.%.X.] :.$._ ( [ ` ` / E ) } ) U Q / Q R E ! ~ L ] [ [ Y _ _ ] ( [ ) { Q ' / ` ( [ ) { Q ' / ` ! ' ( } /  .{ ..[ | 7.4.#.| O.M ",
"x.%.#.;.N.s.o.E / / ' ' ( ` ' ! ) Q Y Y W Q R U ! Q R ' ) [ ( ` } ' ~ { _ ' ~ ) } ' ~ { _ ' ~ ) } ' ^ | ' { ) ] [ 3.H.x.$.W { N ",
"c.$.+.&.h.>.L n ` _ ' ` ) ' [ _ ) ~ E E E E Q ^ Q R T ` _ ) ~ ` ~ ` ) ` ~ ` ) ` ~ ` ) ` ~ ` ) ` ^ ` _ ] ( [ ] { ..4.N.q.] Y | Z ",
"c.*...^ ' K N G _ _ _ ) ( _ ` ` ` ) ^ W T T W ^ Q ^ ^ ) ( ` ) ) ` ' _ ` ) _ ( ) ` ' _ ` ) _ ( ) ) _ ) ' ' { [ { _ ' O./ W (  .m ",
"h.:.+.Y C n M L ( ) _ ` ' _ ) ( ` ) ! R R W E Y T W W ! ( ] [ ' ^ ^ ( ` ) ^ ( [ ^ ^ ( ` ) ^ ( [ ) ( _ ' ) ^ / ' } _ / ! ( { } Z ",
"-.o.=.#.o.*.$.%.%.%.#.#.#.#.@.$.#.%.$.@.#.*.*.#.$.#.$.&.#.o.@.*.#.*.&.+.@.*.*.O.#.*.&.+.@.*.*.O.@.&.%.O.@.*.*.+.&.&.$.%.+.@.:.#."
};
