/* XPM */
static char *_4878_7720522be2fc8170c7df89f30f66891904d4c5013c371df7a693e629061a341c[] = {
/* columns rows colors chars-per-pixel */
"64 64 256 2 ",
"   c black",
".  c #010101",
"X  c #020202",
"o  c gray1",
"O  c #040404",
"+  c gray2",
"@  c #060606",
"#  c #070707",
"$  c gray3",
"%  c #090909",
"&  c gray4",
"*  c #0B0B0B",
"=  c #0C0C0C",
"-  c gray5",
";  c #0E0E0E",
":  c gray6",
">  c #101010",
",  c #111111",
"<  c gray7",
"1  c #131313",
"2  c gray8",
"3  c #151515",
"4  c #161616",
"5  c gray9",
"6  c #181818",
"7  c #191919",
"8  c gray10",
"9  c #1B1B1B",
"0  c gray11",
"q  c #1D1D1D",
"w  c #1E1E1E",
"e  c gray12",
"r  c #202020",
"t  c gray13",
"y  c #222222",
"u  c #232323",
"i  c gray14",
"p  c #252525",
"a  c gray15",
"s  c #272727",
"d  c #282828",
"f  c gray16",
"g  c #2A2A2A",
"h  c gray17",
"j  c #2C2C2C",
"k  c #2D2D2D",
"l  c gray18",
"z  c #2F2F2F",
"x  c gray19",
"c  c #313131",
"v  c #323232",
"b  c gray20",
"n  c #343434",
"m  c #353535",
"M  c gray21",
"N  c #373737",
"B  c gray22",
"V  c #393939",
"C  c #3A3A3A",
"Z  c gray23",
"A  c #3C3C3C",
"S  c gray24",
"D  c #3E3E3E",
"F  c #3F3F3F",
"G  c gray25",
"H  c #414141",
"J  c gray26",
"K  c #434343",
"L  c #444444",
"P  c gray27",
"I  c #464646",
"U  c gray28",
"Y  c #484848",
"T  c #494949",
"R  c gray29",
"E  c #4B4B4B",
"W  c #4C4C4C",
"Q  c gray30",
"!  c #4E4E4E",
"~  c gray31",
"^  c #505050",
"/  c #515151",
"(  c gray32",
")  c #535353",
"_  c gray33",
"`  c #555555",
"'  c #565656",
"]  c gray34",
"[  c #585858",
"{  c gray35",
"}  c #5A5A5A",
"|  c #5B5B5B",
" . c gray36",
".. c #5D5D5D",
"X. c gray37",
"o. c #5F5F5F",
"O. c #606060",
"+. c gray38",
"@. c #626262",
"#. c gray39",
"$. c #646464",
"%. c #656565",
"&. c gray40",
"*. c #676767",
"=. c #686868",
"-. c DimGray",
";. c #6A6A6A",
":. c gray42",
">. c #6C6C6C",
",. c #6D6D6D",
"<. c gray43",
"1. c #6F6F6F",
"2. c gray44",
"3. c #717171",
"4. c #727272",
"5. c gray45",
"6. c #747474",
"7. c gray46",
"8. c #767676",
"9. c #777777",
"0. c gray47",
"q. c #797979",
"w. c gray48",
"e. c #7B7B7B",
"r. c #7C7C7C",
"t. c gray49",
"y. c #7E7E7E",
"u. c gray50",
"i. c #808080",
"p. c #818181",
"a. c gray51",
"s. c #838383",
"d. c #848484",
"f. c gray52",
"g. c #868686",
"h. c gray53",
"j. c #888888",
"k. c #898989",
"l. c gray54",
"z. c #8B8B8B",
"x. c gray55",
"c. c #8D8D8D",
"v. c #8E8E8E",
"b. c gray56",
"n. c #909090",
"m. c gray57",
"M. c #929292",
"N. c #939393",
"B. c gray58",
"V. c #959595",
"C. c gray59",
"Z. c #979797",
"A. c #989898",
"S. c gray60",
"D. c #9A9A9A",
"F. c #9B9B9B",
"G. c gray61",
"H. c #9D9D9D",
"J. c gray62",
"K. c #9F9F9F",
"L. c #A0A0A0",
"P. c gray63",
"I. c #A2A2A2",
"U. c gray64",
"Y. c #A4A4A4",
"T. c #A5A5A5",
"R. c gray65",
"E. c #A7A7A7",
"W. c gray66",
"Q. c #A9A9A9",
"!. c #AAAAAA",
"~. c gray67",
"^. c #ACACAC",
"/. c gray68",
"(. c #AEAEAE",
"). c #AFAFAF",
"_. c gray69",
"`. c #B1B1B1",
"'. c #B2B2B2",
"]. c gray70",
"[. c #B4B4B4",
"{. c gray71",
"}. c #B6B6B6",
"|. c #B7B7B7",
" X c gray72",
".X c #B9B9B9",
"XX c gray73",
"oX c #BBBBBB",
"OX c #BCBCBC",
"+X c gray74",
"@X c gray",
"#X c gray75",
"$X c #C0C0C0",
"%X c #C1C1C1",
"&X c gray76",
"*X c #C3C3C3",
"=X c gray77",
"-X c #C5C5C5",
";X c #C6C6C6",
":X c gray78",
">X c #C8C8C8",
",X c gray79",
"<X c #CACACA",
"1X c #CBCBCB",
"2X c gray80",
"3X c #CDCDCD",
"4X c #CECECE",
"5X c gray81",
"6X c #D0D0D0",
"7X c gray82",
"8X c #D2D2D2",
"9X c LightGray",
"0X c gray83",
"qX c #D5D5D5",
"wX c gray84",
"eX c #D7D7D7",
"rX c #D8D8D8",
"tX c gray85",
"yX c #DADADA",
"uX c gray86",
"iX c gainsboro",
"pX c #DDDDDD",
"aX c gray87",
"sX c #DFDFDF",
"dX c gray88",
"fX c #E1E1E1",
"gX c #E2E2E2",
"hX c gray89",
"jX c #E4E4E4",
"kX c gray90",
"lX c #E6E6E6",
"zX c #E7E7E7",
"xX c gray91",
"cX c #E9E9E9",
"vX c #EAEAEA",
"bX c gray92",
"nX c #ECECEC",
"mX c gray93",
"MX c #EEEEEE",
"NX c #EFEFEF",
"BX c gray94",
"VX c #F1F1F1",
"CX c gray95",
"ZX c #F3F3F3",
"AX c #F4F4F4",
"SX c gray96",
"DX c #F6F6F6",
"FX c gray97",
"GX c #F8F8F8",
"HX c #F9F9F9",
"JX c gray98",
"KX c #FBFBFB",
"LX c gray99",
"PX c #FDFDFD",
"IX c #FEFEFE",
"UX c white",
/* pixels */
"_ / ] / ] _ ' / | / ) { _ ( ' ` _ ) ! _ [ ` ^ [ ` / ' _ { ^ ) / ' ] ` ` ( ) ( ) ` ^ [ ( ] ^ [ / ) / / ) ` _ _ _ _ ` ! } ) ' ) ' ",
"5X3.8.5.%.3.x.k.z.b.z.N.I.A.z.B.Z.D.N.S.z.C.m.Z.k.k.c.j.c.x.b.c.d.x.v.a.7.2.2.2.2.,.8.1.6.2.8.>.<.7.8.3.>.<.1.1.8.-.4.1.-.2.1.B ",
"9X2.$.2.(.R.4.<.d.z.M.M.b.N.Z.B.A.v.Z.F.K.N.S.n.G.n.z.b.C.N.n.b.b.z.m.v.B.l.x.z.b.l.i.c.g.m.s.q.6.:.&.3.6.4.<.3.:.5.~.Q.8.-.0.b ",
"3X-.5.!.PX1X>.( 7.w.h.d.0.s.B.m.k.F.z.A.h.S.D.b.m.G.G.V.c.C.Z.Z.g.D.b.Z.a.F.v.v.j.m.N.n.f.n.b.g.k.c.z.c.j.c.z.x.l.(.BX3X>.` 7.M ",
"9X..:.Q.>Xu.] [ :.3.2.7.i.t.u.N.b.M.s.c.S.c.D.V.S.A.m.G.B.Z.m.Z.H.V.v.M.C.Z.n.x.H.h.c.n.S.g.x.c.m.z.s.b.x.v.g.k.b.Y.,Xw.[ _ k.M ",
"2X-.| :.9./ _ ,.3.2.1.1.1.1.9.d.1.g.3.m.i.N.k.A.x.Z.N.H.b.G.A.L.V.S.H.B.V.N.S.C.M.D.n.J.g.D.M.A.z.G.S.V.d.m.v.v.j.x.4.-./ 7.9.M ",
"7X-.&.@.O.>.6.4.4.2.6.:.} $.6.1.Q w.s.3.{ k.j.v.W z.V.u. .j.B.V.! D.F.M.| C.C.H._ F.A.b.) V.N.m.T c.H.r.| a.M.b.K.v.v.j.Z.d.g.S ",
"7X| *.-.O.:.@.2.,.8.3.:.4.6.1.1.<.>.8.z.=.M.2.v.l.V.j.M.a.S.m.V.z.Z.G.C.N.D.F.C.S.V.Z.H.Z.C.Z.A.S.G.N.J.M.D.m.C.z.Z.l.F.l.H.h.B ",
"6X+.%.:.o.#.#.*.%.,.<.) Y ~ E Q W Q Q ! ! Q Q W Q ! ! T ^ I ( ! U ^ R Y ( E ! U T ~ E ! W Y ' Y W _ Y P ` lXJ.V.C.D.Z.c.m.c.C.M ",
"7Xo. .@.=.-.@.$.$.=.*.Y M D N b M n M S I W W T E ! E ~ W E R Y ^ E ) U Y ( I Q ! U P / T ! U R T E W ] C.NXA.P.D.F.V.L.F.D.Z.C ",
"4XX.{ -.c.f.,.$.@.#.*.! K %.<.>.3.4.4.3.1.1.3.5.,.3.f.q.p.9.g.x.x.n.z.m.l.M.N.N.C.l.S.v.F.F.B.G.Z.C.D.M.rXNXc.S.A.b.).Q.2.>.F.N ",
"W.^ #.l.&XU.*.I &.@.$.U M @.<.-.1.:.=.=.:.1.3.3.3.4.3.8.,.u.e.l.5.f.<.B.6.c.h.k.j.C.m.M.s.G.x.Z.S.B.G.Z.eXxXB.H.C.~.KX-X1.E J.m ",
"^.) _ &.V.y.X.^ %.@.-.Q N %.-.+.3.1.,.<.2.3.1.>.<.=.8.:.9.2.2.<.s.q.v.h.l.v.v.m.M.V.M.f.r.w.c.a.Z.m.n.D.2XvXZ.Z.S./.:Xu.+./ B.Z ",
"R.` / ) %._ E Q @.o.*.Q M &.*.$.$.-.1.3.3.<.,.>.=.1.>.9.-.8.,.7.0.a.<.m.>.v.7.d.4.4. .7.} :.$.K 6.N.b.F.,XAXA.C.S.b.7.' [ 4.V.C ",
"T.[ ) / ^ E ~ ( O.X.$.R b #.@.=.%.#.#.*.,.1.>.*.2.2.2.8.a.l.C.S.C.C.A.c.J.0.g.7.V.A.y.8.N.}.c.L ~ b.v.M.,XNXm.m.V.C.A.P.N.F.L.m ",
"T.' / _ / ' X.{ ` ] @.W N $.X.&.%.#.@.@.$.-.<.3.>.l.L.:X5XiXgXlXfXsXsXrX2X.XZ.V.Q.{.;.b 2.9Xb.D B 5.7.a.5XvXn.Z.v.V.V.m.G.V.Z.N ",
"~.~ ) ( ` ) ] } .. . .R N &.$.#.=.o.=.&.#.$.-.j._.0XhXtX2X.XR.P.Z.C.K.!.W.OXOXoX+X.XF.y.].6X*.L <.y.q.t.!.vXb.z.z.z.F.z.N.m.V.B ",
"Q._ _ / ' / _ ` }  .o.W B #.#.%.O.$.+.#.%.y.`.,XcX5XV.@._ _ / ( U J W ..| =.4.l.$X4X8X;X8X1X .P 3.a.q.6.^.MXl.c.C.g.x.v.v.Z.z.C ",
"C.( ` | -.#.+.{ ' | +.W V o.O.$.*.&.%.1.j.J.}.0X8.@.L K #.9.1.$.3.1.3.q.:.+.| 7.1X,X;X<X9X<X) H ] >.=.O.R.MXd.n.a.4.[.L.3.-.b.B ",
"V.' ' &.p.8.#.U ) ] X.Y C .. .+.' *.] P.qXJ.e.*.} X.X.#.,.1.:.>.$.;.=.;.:.4.5.b. X>X*X*X>X+X` ;.! +.=. .P.cXe.j.b.!.DX3XO.{ c.V ",
"S.` ^  .q.1.] M _ _ [ J C | {  .@.5.F.:X{.3.! / #.-.-.$.o...*.8.1.0.1.*.&.5.9.M.].9X9X4XeX'.Q d.)  .1.%.T.mXd.v.c.!.6X0.#.^ n.n ",
"V.( ( Q ) T I Z ` ( _ A C { [  .+.i.Y.T.W a @.*.%.$.#.&.:.-.$.O.#.1.3.3.:.,.>.j..XK.i.c.eX{.K =.) ( -.&.Y.lXi.s.8.g.0.] } 2.b.m ",
"A.) } W H V H I ` ) ' C B ` ] +.p.y.x.>.L ` ;.$.%.#.O.o.+.%.&.%.o.$.=.2.,.3.5.n.Z.' V ' ,X`.I ~ Z B ` #.^.xXy.0.h.x.z.v.s.c.m.m ",
"D.T ) ~ ^ / _ ( ` ` { Z N ( [ %._.).u.Q | -.} o.+.%.*.%.#.%.$.O.%.@.+.=.-.6.8.l.w.~ O.w.9XT.J S V M _ ,.@XBXq.;.2.k.2.n.3.c.<.C ",
"C.Y _ ^ _ ' ' / ) / } N Z ~ } ).0X&XY ( +.| %.#.+.$.=.=.%.$.$.&.@.$.&.@.;.O.y.9.6.7.y.(.iXG.D J g N ' e.!.vX5.2.2.9.1.4.v.5.j.A ",
"A.R / ^ ) ) ] _ ( ` ' V C | t.@XqX2.( X.} X.O.O.o.@.%.&.%.$.$.%.=.$.$.+.*.=.v.t.5.r.1.0.}.D.G T c g +.u.V.NX1.,.3.5.&.3.6.d.6.m ",
"A.E !  .%.o..._ _ [ ! M M { w.F.*XM { O.[ o. ...X.O.@.$.$.$.$.$.%.@.$.$.%.=.z.1.<.s.7.=.W.A.C W V 6 ~ i.f.mX2.<.<.3.{.I.2.1.6.M ",
"C.E W -.w.1.o.R _ [ ^ C A o.1.B.D.L ' '  ... ...X.X.O.@.$.%.%.%.@.@.#.*.%.$.g.q.:.1.>.=.U.N.M T A , d 5.t.hX6.4.6.Y.HX<X#.X.>.S ",
"Z.Q T #.<.+.! Z _ [ [ V Z @.>.`.,.@._ / } o.[  ...X.o.+.#.%.%.%.*.&.+.#.&.%.M.`.T.v.j.p.G.f.C Y C 9 9 ' 2.sX<.2.<./.4X0.+.] :.V ",
"S.( U ~ E J B N ' _ ' m V :.<.'.( o.` ` ( o.) |  ...o.O.+.@.$.%.*.*.#.+.%.&.V.pXxXpXfX4X/.7.S E B d k J -.gX%.-.#.b.<.#._ 5.-.B ",
"Z._ W Y S S V I ` ( ^ C S i.k.L.Q ) ` ] ( [ _ } }  .X.X.X.X.+.#.+.@.*.#.$.%.v.xXMXkXBXKX9X7.C E A s z E t.dX=.-.2.4.,.8.:.3.6.M ",
"V.` ( ~ U ~ Y ] ' ] ^ S v i.D.z./ ` ) ) ] ! { } [ | ....| | X.@.X.o.:.$.@.=.b.MXbX+X_.mXVXd.N H J e w O.G.rX6.1.%.=.,.:.-.,.2.B ",
"v.( / ! E R R ~ ' _ _ V M 0.J.a.D { ] ) ] ( _ ` ] [ } | ........%.*.%.%.@.o.C.ZXU.^ R y.(.2.Z P ~ ` s =.H.jX&.:.<.<.4.=.=.6.3.Z ",
"m._ ) ) ( ~ R E ) ( ' B N t.J.s.P ] ) ) [ ( ( _ ' ] { }  . ... . .....@.$.%.N.uXw.] C J b.w.G D L ..C #.h.pX=.:.6.,.2.>.<.>.#.m ",
"c.) ] { { ` ! Q ! ^ [ M V s.K.j.Q _ ^ ) [ ) / ) _ ` ] { } |  . .| |  .+.#.&.g.`.h...` 6.!.q.Z H Z D u { i.eXo.=.$.8./.Q.8.:.7.C ",
"l./ } $.;.#.) Y W ! [ n C g.L.N.^ _ ) _ ' _ ) ) ) _ ` ] [ } | |  .X.X.+.o.$.t.M.L.j.b.H.!.4.C C ` Z 6 R 5.0XX.=.O.W.GX2X%.` 1.N ",
"v./ [ #.>.#.E C E Q ` b C p.K.L._ ` ] ` ) ` ` ) ) ) _ ` ] [ { } ] .. .o. .$.p.v.M.J.G.v.G.7.S F / E c Y X.qX=.@.$.~.;Xj.] { @.V ",
"b.) ) ^ E L Z C E W / m V 5.A.Q.@.' [ ] ( ` ' ` _ _ _ ` ' ] [ { ` X.| X.| +.p.N.M.x.m.Z.P.9.A V E T F X.$.6X*.O.o.2.1.] ..<.>.D ",
"x._ ) T S B S T W W Q B B +.c.~.9.[ ) ] _ _ ) ] ` ` _ _ ` ' ] [ ] O.{ X. .| r.M.F.n.V.Z.B.6.J B *.J v 3.0.1X@.=.$. .=.=.O.$.*.m ",
"x.) ] [ ' ) ~ / W W E Z N ` d.!.j.[ ! [ ' ( ^ [ ' ` ` _ _ ` ' ] ` X._  .X.} w.N.x.V.b.x.G.q.~ 3. .h q 2.a.6X#.%.&.#.*.@.%.*.@.M ",
"z._ ! ] ' ! _ ! E ^ Q M B / 1.J.E.' / | ! ] ( ` _ _ ) ) ) ) _ _ ( { }  .{ @.<.N.n.M.S.n.N.e.E / ` k x -.u.T.-.#.&.&.#.+.%.+.#.S ",
"b.{ ^ ' { ( ` / E ~ Q N V ! $.z.E.u.[ ( [ Y ] ) ` ` _ _ _ _ _ _ ` } {  .[ o.;.m.Z.z.m.N.L.r.S V ' ! T 3.h.U.$.%.+.@.&.%.&.&.&.b ",
"z.] ~ { *.O.' W W ! W B V E ` 1.Z._.:...' ( } ~ _ _ ` ` ` _ _ ) ' ] ` | ] | &.n.j.} / *.G.g.K m W ../ ,.n.~.%.%...q.H.C.4.&.<.Z ",
"v...{ =.u.7. .E ! ! W N V T E } u.I.Q.@. .o.' ~ ( ) ) _ _ _ _ ) _ ( / { ' } %.n.9.n 7 B l.k.Y c Y | ] :.n.(.$.+.*.V.>X/.$.W @.V ",
"k.{ ]  .;.o.U A / ~ W N B R T ~ | V.U.M.[ ) ] _ / ( ( ) ) _ _ _ _ ( ^ ] ` ] +.z.h.} U ` b.h.T M V K ` %.i.T.@.#.&.j.'.K.&.] *.n ",
"n.O. ./ W L Z D _ / ! N B W E W E 2.c.C.4.D $.| ` _ _ ) ) ) _ _ ' ` ( ] ) `  .a.x.k.x.j.N.s./ _ A A ' @.w.R.&.&.O.$.1.*.[ o.>.m ",
"c.} { R D A S L ` ) ^ N N Q Q E ! W 5.r.9.s.| $. .} ] ` ) ) ) _ ` ] _ ' ( ` } r.e.l.m.x.j.p.' #.} O.,.;.i.T.%.$.*.$.$.@.#.&.*.n ",
"v.[ X.' ~ ) ) _ ` _ ( B M Q Q E E Q _ ] M._.e.] @.o.| ] _ ) ) _ ( ' _ ` / ]  .e.s.h.a.g.z.c.[  .[ 4.0.*.w.C. .$.@.%.%.$.=.#.+.V ",
"v.| ....' / ` ' ` / _ N V Y W T Q R T ) -.r.t.6.q.d.,.` O.&.| [ o.) { %.=.1.6.>.k.y.f.f.h.f.O.D K >...5.t.N.$.&.$.O.$.#.*.%.+.Z ",
"x.[ { { ` / _ ) ' _ ] C S W ^ ! ~ ~ ~ / ` X.>.9.C.^.!.G.D.N.s.y.,.=.8.k.b.B.V.x.q.d.l.f.x.z...j T g.<.;.u.F.o.%.&.&.:...+.&.&.v ",
"M... .+.*.&.+.[ ) ( ` M V U R T E Y T Q Q Q ` O.<.f.Z.K.R.!./.'.}./.).).K.v.y.<.u.y.[ G O.a.-.v o.s.7.2.r.L.$.|  .;.m.l.9...@.A ",
"z.{  .-.9.4.X.T / / ) M A E ! ~ W T T ^ ` ` ) ) ` | $.<.9.p.x.M.x.d.s.i.5.*.X.' 7.9.E m ] p.0.F W $.:.:.<.V.$.O...v.&XV.=._ &.N ",
"g.} X.%.,.+.R M ` ' ` m A R T R W Q W R Q ( ` _ [ ( / _ ) ( ) ) } _ _ ' _ ) ` ` | w.w.9.q.p.e.E U $.O.] <.N.[ +.%.f.W.8._ Q &.m ",
"b.$...^ E J Z C ` ` ( n F ! E E W ~ ! Y T ~ ( ^ _ ) ` [ ' ) _ ' ] ) ( ` _ ) ) _ { 1.7.w.5.1.3.' O.@.} | 2.n.{ { o...1.X.] / @.A ",
"v.#.[ P F A F I / ( / V ~ $.#.%.| | } | ..X. .[ @.%.%.%.$.@.#.=.@.O.@.*.;.=.&.&.$.$.| O.$.#.-.O.$.O.>.7.3.f.o. . .O.%.~ ) +.*.m ",
"h.@.O.{  .{ ) ( ` ' ) Z ( *.%.&.$.@.#.*.&.@.#.*.@.&.$.#.&.$.+.#.$.#.%.>.3.2.,.,.2.6.,.3.5.;.<.8.3.z.n.l.k.m. .} X.X.+.| @.=.#.M ",
"c.#.[ } .. ./ ` ) ( [ ] ! ) ' Y P ~ ^ U P Q ~ Y ^  ._ ' R ..` ( ~ | _ [ R } ) ( ~ | _ [ R } ) ( / X.]  .^ +.| | [ } o.X.[ %.$.C ",
"x.-.+.{ ..} ) { { ) ( W L ! [ ^ m P ! I D H T Q b ! ( ! Z Q ^ ` c Q ) ^ C W / } c Q ) ^ C W / } n / ] _ D ^ ` ..@.} ....} @.@.m ",
"h.%.X.] :.$._ ( [ ` ` / E ) } ) U Q / Q R E ! ~ L ] [ [ Y _ _ ] ( [ ) { Q ' / ` ( [ ) { Q ' / ` ! ' ( } /  .{ ..[ | 7.4.#.| O.M ",
"x.%.#.;.N.s.o.E / / ' ' ( ` ' ! ) Q Y Y W Q R U ! Q R ' ) [ ( ` } ' ~ { _ ' ~ ) } ' ~ { _ ' ~ ) } ' ^ | ' { ) ] [ 3.H.x.$.W { N ",
"c.$.+.&.h.>.L n ` _ ' ` ) ' [ _ ) ~ E E E E Q ^ Q R T ` _ ) ~ ` ~ ` ) ` ~ ` ) ` ~ ` ) ` ~ ` ) ` ^ ` _ ] ( [ ] { ..4.N.q.] Y | Z ",
"c.*...^ ' K N G _ _ _ ) ( _ ` ` ` ) ^ W T T W ^ Q ^ ^ ) ( ` ) ) ` ' _ ` ) _ ( ) ` ' _ ` ) _ ( ) ) _ ) ' ' { [ { _ ' O./ W (  .m ",
"h.:.+.Y C n M L ( ) _ ` ' _ ) ( ` ) ! R R W E Y T W W ! ( ] [ ' ^ ^ ( ` ) ^ ( [ ^ ^ ( ` ) ^ ( [ ) ( _ ' ) ^ / ' } _ / ! ( { } Z ",
"-.o.=.#.o.*.$.%.%.%.#.#.#.#.@.$.#.%.$.@.#.*.*.#.$.#.$.&.#.o.@.*.#.*.&.+.@.*.*.O.#.*.&.+.@.*.*.O.@.&.%.O.@.*.*.+.&.&.$.%.+.@.:.#."
};
